<svg width="291" height="41" viewBox="0 0 291 41" fill="none" xmlns="http://www.w3.org/2000/svg">
<path d="M217.334 15.4049L217.542 30.8792H221.359H225.175L225.383 15.4049L225.522 -2.57567e-05H221.359H217.195L217.334 15.4049Z" fill="url(#paint0_linear_111_180)"/>
<path d="M148.359 2.22064C144.82 3.12273 139.754 7.77195 138.713 10.964C137.395 14.8499 137.673 20.8175 139.199 23.9401C139.893 25.3974 141.697 27.5485 143.154 28.7282C145.375 30.5323 146.555 30.8793 150.579 31.0875C153.286 31.2262 156.547 31.1569 157.865 30.9487C160.294 30.4629 160.294 30.4629 160.294 26.6464C160.294 22.9687 160.225 22.8299 158.768 23.385C157.865 23.6626 155.714 23.9401 153.91 23.9401C151.273 23.9401 150.232 23.5238 148.845 22.136C146.485 19.8461 145.93 16.1683 147.457 12.9763C148.914 9.85369 151.551 8.74343 156.478 9.15978L160.294 9.50674V5.89838V2.29003L157.727 1.80429C154.257 1.24916 151.481 1.38794 148.359 2.22064Z" fill="url(#paint1_linear_111_180)"/>
<path d="M0 16.7233V31.4343L8.95149 31.0874C16.5152 30.8098 18.1805 30.5322 20.2623 29.2832C24.7033 26.5075 25.6054 21.3726 22.2746 17.9724C21.1644 16.8621 19.7072 15.96 19.0826 15.96C18.3887 15.96 18.9439 15.058 20.8174 13.3232C24.0788 10.1312 24.4258 7.70246 21.9277 5.20437C19.5684 2.84507 15.96 2.08176 7.49427 2.08176H0V16.7233ZM13.2538 8.32699C16.0988 9.92299 14.364 13.1844 10.6169 13.1844C8.39636 13.1844 8.32697 13.115 8.32697 10.4087C8.32697 7.91064 8.46575 7.63307 10.1311 7.63307C11.1026 7.63307 12.4905 7.98003 13.2538 8.32699ZM13.9477 19.4296C15.5437 20.3317 15.6825 23.1074 14.1558 24.5646C13.6007 25.1891 12.0047 25.6748 10.6863 25.6748H8.32697V22.2053C8.32697 18.8051 8.39636 18.7357 10.4781 18.7357C11.6578 18.7357 13.1844 19.0827 13.9477 19.4296Z" fill="url(#paint2_linear_111_180)"/>
<path d="M121.088 6.03702C119.978 8.18816 117.41 12.2129 115.398 14.9885C112.345 19.0826 111.72 20.4704 111.72 22.8297V25.6748H117.549H123.447L123.655 28.2423L123.864 30.8792H127.333H130.803L131.011 28.2423C131.219 25.883 131.427 25.6748 133.301 25.6748C135.313 25.6748 135.383 25.536 135.174 23.0379C134.966 20.8174 134.689 20.4704 133.093 20.2623L131.15 20.0541V11.0332V2.08171H127.194H123.17L121.088 6.03702ZM123.309 19.9153C123.1 20.0541 121.99 20.1235 120.88 19.9847L118.729 19.7765L120.949 16.2376L123.17 12.6986L123.378 16.0988C123.517 18.0417 123.447 19.7071 123.309 19.9153Z" fill="url(#paint3_linear_111_180)"/>
<path d="M58.9827 4.85734C58.0112 5.13491 56.4152 5.62065 55.3743 5.82882C53.7783 6.17578 53.4314 6.66152 53.4314 8.32691C53.4314 10.0617 53.1538 10.4087 51.6272 10.4087C50.0312 10.4087 49.8924 10.6168 50.1006 13.3231C50.2394 15.7518 50.5863 16.3763 51.766 16.5151C53.1538 16.7233 53.2926 17.209 53.5702 22.344C53.7783 27.4095 53.9865 28.0341 55.7213 29.5607C57.3173 30.9485 58.4276 31.2261 61.8277 31.2261H65.9218V28.4504C65.9218 26.2299 65.6443 25.6748 64.6728 25.6748C62.591 25.6748 61.7583 24.1482 61.7583 20.3316C61.7583 16.7233 61.7583 16.6539 63.8401 16.6539C65.8524 16.6539 65.9218 16.5151 65.9218 13.5313C65.9218 10.5474 65.8524 10.4087 63.8401 10.4087C61.8277 10.4087 61.7583 10.2699 61.7583 7.28604C61.7583 3.95525 61.689 3.95525 58.9827 4.85734Z" fill="url(#paint4_linear_111_180)"/>
<path d="M74.5958 10.6864C67.7954 13.6702 66.0606 23.5932 71.4732 28.7976C73.3467 30.6017 74.2488 30.8793 78.4123 31.0875C85.6984 31.5038 86.7393 31.0875 86.7393 27.7567C86.7393 25.1198 86.6699 25.0504 84.9351 25.6749C82.3676 26.6464 79.6613 26.5076 77.8572 25.2586C75.1509 23.385 76.1918 22.8993 82.5758 22.8993H88.821V19.5685C88.821 12.0048 81.7431 7.56378 74.5958 10.6864ZM81.188 15.9601C82.2288 17.9031 81.5349 18.7358 78.6899 18.7358C76.8857 18.7358 76.3306 18.4582 76.3306 17.4868C76.3306 14.6417 79.8695 13.5314 81.188 15.9601Z" fill="url(#paint5_linear_111_180)"/>
<path d="M96.7316 10.6862C90.2782 13.5313 91.0415 20.5398 98.1889 23.3155C101.381 24.4951 101.936 25.1891 100.479 26.0911C99.3685 26.7851 95.205 26.5075 93.5396 25.6054C92.2906 24.9115 92.2212 25.1197 92.4294 27.8953L92.6375 30.8792H98.744C104.781 30.8792 104.92 30.8792 106.932 28.5892C110.471 24.6339 109.222 20.401 103.671 18.0417C101.797 17.209 100.618 16.2376 100.618 15.5436C100.618 14.5722 101.103 14.4334 104.087 14.8497L107.557 15.3355V12.9762C107.557 11.1026 107.21 10.4781 106.03 10.1311C103.393 9.4372 99.0216 9.71477 96.7316 10.6862Z" fill="url(#paint6_linear_111_180)"/>
<path d="M170.495 10.6863C167.164 11.9353 166.192 12.768 164.874 15.5437C162.515 20.5399 164.111 26.7157 168.552 29.6301C171.397 31.5731 178.613 31.8507 181.805 30.1853C188.467 26.7157 189.092 15.6825 182.846 11.7966C179.793 9.92299 173.964 9.36786 170.495 10.6863ZM178.336 17.2785C180.001 20.4705 178.336 25.6748 175.56 25.6748C172.785 25.6748 171.119 20.4705 172.785 17.2785C173.27 16.4458 174.242 15.96 175.56 15.96C176.879 15.96 177.85 16.4458 178.336 17.2785Z" fill="url(#paint7_linear_111_180)"/>
<path d="M197.696 10.3394C194.643 11.3109 192.353 13.1845 191.243 15.6132C188.883 20.5399 190.479 26.7158 194.92 29.6302C198.251 31.9201 205.607 31.9201 208.938 29.6302C215.183 25.4667 215.322 15.5438 209.146 11.7272C206.578 10.1312 200.541 9.43732 197.696 10.3394ZM204.705 17.2785C206.37 20.4706 204.705 25.6749 201.929 25.6749C199.153 25.6749 197.488 20.4706 199.153 17.2785C199.639 16.4458 200.611 15.9601 201.929 15.9601C203.247 15.9601 204.219 16.4458 204.705 17.2785Z" fill="url(#paint8_linear_111_180)"/>
<path d="M235.237 11.2413C230.935 13.4619 229.477 15.7518 229.477 20.3316C229.477 27.4789 233.502 31.2261 240.996 31.2261C248.768 31.2261 252.793 27.4789 252.793 20.3316C252.793 17.6947 252.377 16.0294 251.405 14.7109C249.601 12.1434 244.535 9.71474 241.135 9.71474C239.539 9.71474 236.972 10.4087 235.237 11.2413ZM243.425 16.7927C244.674 18.0417 244.466 23.3155 243.148 24.5645C240.719 27.0626 238.013 24.9808 238.013 20.5398C238.013 17.3478 238.915 15.96 241.135 15.96C241.968 15.96 242.939 16.3069 243.425 16.7927Z" fill="url(#paint9_linear_111_180)"/>
<path d="M267.088 11.7271L265.075 13.7395V12.0741C265.075 10.4781 264.867 10.4087 260.912 10.4087H256.679L256.887 20.6092L257.095 30.8792H260.912H264.728L265.075 24.4257C265.422 17.3478 265.838 16.6539 269.794 16.6539C272.014 16.6539 272.014 16.6539 272.014 13.1843C272.014 10.1311 271.806 9.71477 270.557 9.71477C269.794 9.71477 268.198 10.6169 267.088 11.7271Z" fill="url(#paint10_linear_111_180)"/>
<path d="M279.647 10.4782C276.455 11.7966 274.79 13.9478 274.79 16.7928C274.79 19.9154 277.08 22.5523 280.341 23.2462C281.452 23.4544 282.701 24.1483 283.117 24.7035C284.297 26.0913 281.452 26.9934 278.26 26.2995C274.721 25.4668 274.721 25.4668 274.929 28.2424L275.137 30.8793L280.133 31.0875C286.101 31.2956 289.015 30.116 290.403 26.8546C291.444 24.2871 291.097 21.2339 289.57 19.9848C288.946 19.4991 287.211 18.597 285.615 17.9725C281.59 16.3765 281.868 14.9193 286.101 15.058C289.362 15.1274 289.362 15.1274 289.362 12.8375C289.362 11.1027 289.015 10.4782 287.836 10.1313C285.546 9.50673 281.66 9.71491 279.647 10.4782Z" fill="url(#paint11_linear_111_180)"/>
<path d="M27.132 14.0171C27.8953 16.0295 29.8383 20.6093 31.3649 24.2176C34.8345 32.4058 34.5569 34.21 29.9771 34.557C27.0626 34.7651 27.0626 34.7651 27.0626 37.4714C27.0626 40.0389 27.2014 40.2471 29.4219 40.6634C34.0018 41.4961 38.5122 39.4144 40.5246 35.5284C41.7042 33.3079 49.2679 12.0741 49.2679 11.1027C49.2679 10.6863 47.6025 10.4087 45.5207 10.4087H41.7736L40.1776 17.0009C39.2755 20.6093 38.3734 23.3849 38.0959 23.1074C37.8877 22.7604 37.2632 20.9562 36.8468 19.0827C36.3611 17.1397 35.7366 14.4335 35.3202 12.9762L34.6263 10.4087H30.1852H25.6748L27.132 14.0171Z" fill="url(#paint12_linear_111_180)"/>
<defs>
<linearGradient id="paint0_linear_111_180" x1="225.522" y1="14.8393" x2="217.183" y2="14.9281" gradientUnits="userSpaceOnUse">
<stop stop-color="#CD773A"/>
<stop offset="1" stop-color="#F87171"/>
</linearGradient>
<linearGradient id="paint1_linear_111_180" x1="160.294" y1="15.7383" x2="137.856" y2="16.4072" gradientUnits="userSpaceOnUse">
<stop stop-color="#CD773A"/>
<stop offset="1" stop-color="#F87171"/>
</linearGradient>
<linearGradient id="paint2_linear_111_180" x1="24.2848" y1="16.1875" x2="-0.011356" y2="16.9808" gradientUnits="userSpaceOnUse">
<stop stop-color="#CD773A"/>
<stop offset="1" stop-color="#F87171"/>
</linearGradient>
<linearGradient id="paint3_linear_111_180" x1="135.254" y1="15.9206" x2="111.709" y2="16.68" gradientUnits="userSpaceOnUse">
<stop stop-color="#CD773A"/>
<stop offset="1" stop-color="#F87171"/>
</linearGradient>
<linearGradient id="paint4_linear_111_180" x1="65.9218" y1="17.2633" x2="50.0097" y2="17.6346" gradientUnits="userSpaceOnUse">
<stop stop-color="#CD773A"/>
<stop offset="1" stop-color="#F87171"/>
</linearGradient>
<linearGradient id="paint5_linear_111_180" x1="88.821" y1="20.0298" x2="68.2731" y2="20.8031" gradientUnits="userSpaceOnUse">
<stop stop-color="#CD773A"/>
<stop offset="1" stop-color="#F87171"/>
</linearGradient>
<linearGradient id="paint6_linear_111_180" x1="108.919" y1="19.9016" x2="92.3165" y2="20.416" gradientUnits="userSpaceOnUse">
<stop stop-color="#CD773A"/>
<stop offset="1" stop-color="#F87171"/>
</linearGradient>
<linearGradient id="paint7_linear_111_180" x1="187.186" y1="20.2072" x2="163.795" y2="21.2205" gradientUnits="userSpaceOnUse">
<stop stop-color="#CD773A"/>
<stop offset="1" stop-color="#F87171"/>
</linearGradient>
<linearGradient id="paint8_linear_111_180" x1="213.7" y1="20.2275" x2="190.164" y2="21.2491" gradientUnits="userSpaceOnUse">
<stop stop-color="#CD773A"/>
<stop offset="1" stop-color="#F87171"/>
</linearGradient>
<linearGradient id="paint9_linear_111_180" x1="252.793" y1="20.0523" x2="229.484" y2="21.0493" gradientUnits="userSpaceOnUse">
<stop stop-color="#CD773A"/>
<stop offset="1" stop-color="#F87171"/>
</linearGradient>
<linearGradient id="paint10_linear_111_180" x1="272.014" y1="19.8856" x2="256.668" y2="20.3244" gradientUnits="userSpaceOnUse">
<stop stop-color="#CD773A"/>
<stop offset="1" stop-color="#F87171"/>
</linearGradient>
<linearGradient id="paint11_linear_111_180" x1="291" y1="20.0222" x2="274.78" y2="20.5083" gradientUnits="userSpaceOnUse">
<stop stop-color="#CD773A"/>
<stop offset="1" stop-color="#F87171"/>
</linearGradient>
<linearGradient id="paint12_linear_111_180" x1="49.2679" y1="25.0353" x2="25.6607" y2="25.7575" gradientUnits="userSpaceOnUse">
<stop stop-color="#CD773A"/>
<stop offset="1" stop-color="#F87171"/>
</linearGradient>
</defs>
</svg>
