<svg width="622" height="430" viewBox="0 0 622 430" fill="none" xmlns="http://www.w3.org/2000/svg">
<path d="M191.385 188.936C191.385 261.003 148.542 286.166 95.6923 286.166C42.8429 286.166 0 261.003 0 188.936C0 116.868 95.6923 25.1873 95.6923 25.1873C95.6923 25.1873 191.385 116.868 191.385 188.936Z" fill="#50C192"/>
<path d="M92.2065 275.142L93.1862 214.828L133.973 140.211L93.3401 205.367L93.7804 178.247L121.89 124.262L93.8974 171.07L94.6893 122.294L124.79 79.316L94.8142 114.624L95.3091 25.1868L92.1981 143.586L92.4534 138.702L61.8498 91.8579L91.9629 148.078L89.1111 202.552L89.0264 201.106L53.7458 151.81L88.9194 206.214L88.5627 213.027L88.4992 213.129L88.5282 213.689L81.2936 351.894H90.9598L92.1195 280.508L127.207 226.237L92.2065 275.142Z" fill="#3F3D56"/>
<path d="M621.248 360.892C621.248 385.824 492.994 430 334.785 430C176.576 430 48.3227 385.824 48.3227 360.892C48.3227 335.96 176.576 339.714 334.785 339.714C492.994 339.714 621.248 335.96 621.248 360.892Z" fill="#3F3D56"/>
<path opacity="0.1" d="M621.248 360.892C621.248 385.824 492.994 430 334.785 430C176.576 430 48.3227 385.824 48.3227 360.892C48.3227 335.96 176.576 339.714 334.785 339.714C492.994 339.714 621.248 335.96 621.248 360.892Z" fill="black"/>
<path d="M334.785 406.035C492.994 406.035 621.248 385.824 621.248 360.892C621.248 335.96 492.994 315.749 334.785 315.749C176.576 315.749 48.3227 335.96 48.3227 360.892C48.3227 385.824 176.576 406.035 334.785 406.035Z" fill="#3F3D56"/>
<path opacity="0.1" d="M345.205 381.513C382.757 381.513 413.198 375.15 413.198 367.301C413.198 359.452 382.757 353.09 345.205 353.09C307.654 353.09 277.212 359.452 277.212 367.301C277.212 375.15 307.654 381.513 345.205 381.513Z" fill="black"/>
<path d="M267.735 82.9154C282.68 82.9154 294.796 70.8 294.796 55.8549C294.796 40.9098 282.68 28.7944 267.735 28.7944C252.79 28.7944 240.675 40.9098 240.675 55.8549C240.675 70.8 252.79 82.9154 267.735 82.9154Z" fill="#2F2E41"/>
<path d="M267.083 213.037C282.028 213.037 294.143 200.922 294.143 185.977C294.143 171.031 282.028 158.916 267.083 158.916C252.138 158.916 240.022 171.031 240.022 185.977C240.022 200.922 252.138 213.037 267.083 213.037Z" fill="#6C63FF"/>
<path opacity="0.3" d="M247.015 243.451C251.784 243.451 255.651 239.584 255.651 234.815C255.651 230.045 251.784 226.178 247.015 226.178C242.245 226.178 238.378 230.045 238.378 234.815C238.378 239.584 242.245 243.451 247.015 243.451Z" fill="#6C63FF"/>
<path opacity="0.5" d="M231.846 226.894C236.616 226.894 240.483 223.027 240.483 218.258C240.483 213.488 236.616 209.621 231.846 209.621C227.077 209.621 223.21 213.488 223.21 218.258C223.21 223.027 227.077 226.894 231.846 226.894Z" fill="#6C63FF"/>
<path d="M216.678 210.337C221.448 210.337 225.314 206.471 225.314 201.701C225.314 196.931 221.448 193.065 216.678 193.065C211.908 193.065 208.042 196.931 208.042 201.701C208.042 206.471 211.908 210.337 216.678 210.337Z" fill="#6C63FF"/>
<path opacity="0.3" d="M216.678 210.337C221.448 210.337 225.314 206.471 225.314 201.701C225.314 196.931 221.448 193.065 216.678 193.065C211.908 193.065 208.042 196.931 208.042 201.701C208.042 206.471 211.908 210.337 216.678 210.337Z" fill="white"/>
<path d="M310.699 334.051C310.699 334.051 310.534 343.71 309.708 346.269C308.883 348.828 309.708 352.048 309.708 352.048L306.571 360.303H317.716C317.716 360.303 320.358 348.25 320.358 347.177C320.358 346.104 318.789 337.023 318.789 337.023L310.699 334.051Z" fill="#FFB9B9"/>
<path d="M319.285 359.642C319.285 359.642 316.478 351.965 304.59 359.642C304.59 359.642 299.884 366.577 302.526 368.723C305.168 370.87 309.708 373.759 313.506 372.108C317.303 370.457 318.789 368.641 319.285 365.256C319.596 363.398 319.596 361.501 319.285 359.642Z" fill="#2F2E41"/>
<path d="M370.799 334.051C370.799 334.051 370.964 343.71 371.789 346.269C372.615 348.828 371.789 352.048 371.789 352.048L374.926 360.303H363.781C363.781 360.303 361.14 348.25 361.14 347.177C361.14 346.104 362.708 337.023 362.708 337.023L370.799 334.051Z" fill="#FFB9B9"/>
<path d="M362.213 359.642C362.213 359.642 365.02 351.965 376.908 359.642C376.908 359.642 381.613 366.577 378.971 368.723C376.33 370.87 371.789 373.759 367.992 372.108C364.194 370.457 362.708 368.641 362.213 365.256C361.902 363.398 361.902 361.501 362.213 359.642Z" fill="#2F2E41"/>
<path d="M307.892 152.101C307.892 152.101 315.983 163.246 316.973 166.796C317.964 170.346 324.155 170.015 323.743 166.796C323.33 163.576 312.515 146.322 312.515 146.322L307.892 152.101Z" fill="#FFB9B9"/>
<path d="M373.275 148.469C373.275 148.469 361.883 167.786 364.772 169.933C367.661 172.079 378.641 153.092 378.641 153.092L373.275 148.469Z" fill="#FFB9B9"/>
<path d="M362.626 163.576H343.803C340.336 163.576 328.944 164.484 327.127 163.576C325.311 162.668 318.542 162.75 318.542 162.75C318.542 162.75 304.755 194.286 308.47 219.465C312.185 244.644 300.628 331.739 306.076 334.381C311.525 337.023 316.395 340.325 321.101 340.49C325.807 340.655 334.557 338.591 335.548 337.188C336.539 335.784 341.409 213.439 341.409 213.439C341.409 213.439 343.143 334.133 346.363 336.857C349.582 339.582 358.828 341.398 364.607 340.49C370.386 339.582 376.33 336.362 377.486 334.216C378.641 332.069 373.44 271.474 373.44 271.474C373.44 271.474 381.448 178.436 368.239 166.796L362.626 163.576Z" fill="#2F2E41"/>
<path d="M334.97 67.7304C334.97 67.7304 339.098 81.2693 330.925 85.1494C322.752 89.0294 337.942 120.648 337.942 120.648C337.942 120.648 359.159 93.4874 359.159 87.5434L355.609 83.9936C355.609 83.9936 348.674 72.3535 350.821 68.7211C352.967 65.0887 334.97 67.7304 334.97 67.7304Z" fill="#FFB9B9"/>
<path opacity="0.1" d="M334.97 67.7304C334.97 67.7304 339.098 81.2693 330.925 85.1494C322.752 89.0294 337.942 120.648 337.942 120.648C337.942 120.648 359.159 93.4874 359.159 87.5434L355.609 83.9936C355.609 83.9936 348.674 72.3535 350.821 68.7211C352.967 65.0887 334.97 67.7304 334.97 67.7304Z" fill="black"/>
<path d="M340.997 113.879C340.997 113.879 336.043 100.917 336.621 96.0468C337.199 91.1761 335.826 83.2122 333.705 82.9839C331.585 82.7556 309.791 89.8552 307.562 91.3412C305.333 92.8272 303.352 123.042 303.352 123.042L313.093 145.497C313.093 145.497 313.919 163.906 318.542 164.732C323.165 165.558 366.836 167.869 368.239 166.301C369.643 164.732 384.007 121.886 384.007 121.886L387.227 96.7898C387.227 96.7898 383.182 91.754 378.889 90.5983C374.596 89.4425 360.727 84.4892 359.158 84.3241C357.59 84.159 352.637 85.0671 352.224 86.5531C351.811 88.0391 340.997 113.879 340.997 113.879Z" fill="#D0CDE1"/>
<path d="M343.845 76.3575C353.191 76.3575 360.768 68.7805 360.768 59.4339C360.768 50.0872 353.191 42.5103 343.845 42.5103C334.498 42.5103 326.921 50.0872 326.921 59.4339C326.921 68.7805 334.498 76.3575 343.845 76.3575Z" fill="#FFB9B9"/>
<path d="M349.673 28.1481C346.505 24.3259 340.03 23.9127 336.401 27.3011C335.423 28.2147 334.651 29.3375 333.63 30.2034C332.638 30.9858 331.537 31.6197 330.362 32.0854C326.492 33.7795 322.383 34.9833 318.773 37.1778C315.164 39.3724 312.001 42.8452 311.554 47.0457C311.318 49.2673 311.853 51.5377 311.447 53.7346C310.81 57.1782 308.043 59.7473 305.727 62.3742C303.527 64.8695 301.548 68.4261 303.121 71.3569C304.46 73.8498 307.741 74.5896 309.584 76.7363C311.712 79.2146 311.44 82.9663 310.386 86.0585C309.332 89.1506 307.619 92.056 307.185 95.2939C306.472 100.623 309.4 105.847 313.214 109.638C314.959 111.372 316.966 112.936 319.322 113.647C321.099 114.143 322.975 114.166 324.764 113.713C326.552 113.26 328.192 112.348 329.519 111.067C330.819 109.758 331.791 108.161 332.357 106.405C332.922 104.65 333.065 102.785 332.772 100.964C332.451 98.9624 331.628 96.9978 331.842 94.982C332.281 90.8411 336.798 88.2291 337.868 84.2049C338.963 80.0874 336.199 76.0771 334.572 72.1393C332.521 67.1727 332.231 61.6732 332.183 56.2998C332.155 53.2256 332.472 49.6259 335.063 47.9709C336.756 46.8894 338.91 47.008 340.914 46.8598C343.25 46.687 345.575 46.1018 347.907 46.3177C350.24 46.5335 352.704 47.8243 353.337 50.0796C354.047 52.6046 352.253 55.1684 352.271 57.7912C352.279 59.0771 352.726 60.3302 352.734 61.6162C352.757 65.3512 349.296 68.0207 347.355 71.212C346.028 73.491 345.423 76.1194 345.622 78.7494C345.821 81.3793 346.814 83.8869 348.47 85.9402C350.447 88.2998 353.428 90.2292 353.77 93.2886C353.962 95.0047 353.24 96.6707 352.805 98.3419C352.37 100.013 352.3 102.009 353.515 103.237C354.338 104.069 355.562 104.343 356.723 104.497C359.713 104.893 362.75 104.746 365.687 104.062C366.445 103.943 367.156 103.622 367.747 103.132C369.206 101.719 368.292 99.2135 368.966 97.2972C369.625 95.4248 371.673 94.4477 373.594 93.9467C375.514 93.4457 377.59 93.1816 379.157 91.9626C380.898 90.6077 381.661 88.2695 381.563 86.0655C381.465 83.8615 380.615 81.7609 379.624 79.7898C379.391 79.4299 379.279 79.006 379.301 78.5782C379.494 77.4423 381.115 77.5404 382.268 77.5265C385.308 77.4896 387.641 74.3747 387.725 71.3352C387.809 68.2957 386.19 65.4596 384.257 63.1125C382.324 60.7655 380.025 58.7136 378.329 56.1894C375.431 51.8737 374.424 46.3674 370.903 42.5425C369.188 40.7125 366.993 39.4007 364.57 38.7563C362.703 38.2486 359.9 38.8843 358.444 37.5544C357.876 37.0351 357.634 36.1975 357.077 35.6453C356.173 34.7479 354.937 34.4838 353.922 33.7582C351.972 32.3638 351.162 29.9447 349.673 28.1481Z" fill="#2F2E41"/>
<path d="M310.699 92.0015L307.562 91.3411C307.562 91.3411 268.596 122.134 266.698 126.096C264.799 130.059 259.68 133.609 270.495 140.048C281.31 146.487 307.975 156.889 307.975 156.889L314.166 145.909L283.869 130.307C283.869 130.307 290.886 120.4 305.498 122.629L310.699 92.0015Z" fill="#D0CDE1"/>
<path d="M384.503 95.5515L387.227 96.7898C387.227 96.7898 428.256 126.427 423.386 133.857C418.515 141.287 378.889 158.953 378.889 158.953L371.872 147.891C371.872 147.891 372.416 147.634 373.351 147.187C379.263 144.362 400.81 133.969 399.527 133.114C398.041 132.123 385.576 121.061 382.108 120.648C378.641 120.235 384.503 95.5515 384.503 95.5515Z" fill="#D0CDE1"/>
<path d="M423.271 220.057C438.217 220.057 450.332 207.942 450.332 192.997C450.332 178.052 438.217 165.936 423.271 165.936C408.326 165.936 396.211 178.052 396.211 192.997C396.211 207.942 408.326 220.057 423.271 220.057Z" fill="#FF6584"/>
<path d="M443.32 250.479C448.09 250.479 451.956 246.613 451.956 241.843C451.956 237.073 448.09 233.207 443.32 233.207C438.55 233.207 434.683 237.073 434.683 241.843C434.683 246.613 438.55 250.479 443.32 250.479Z" fill="#FF6584"/>
<path opacity="0.3" d="M443.32 250.479C448.09 250.479 451.956 246.613 451.956 241.843C451.956 237.073 448.09 233.207 443.32 233.207C438.55 233.207 434.683 237.073 434.683 241.843C434.683 246.613 438.55 250.479 443.32 250.479Z" fill="white"/>
<path opacity="0.5" d="M458.495 233.928C463.264 233.928 467.131 230.062 467.131 225.292C467.131 220.522 463.264 216.656 458.495 216.656C453.725 216.656 449.858 220.522 449.858 225.292C449.858 230.062 453.725 233.928 458.495 233.928Z" fill="#FF6584"/>
<path opacity="0.3" d="M473.67 217.378C478.439 217.378 482.306 213.511 482.306 208.741C482.306 203.972 478.439 200.105 473.67 200.105C468.9 200.105 465.033 203.972 465.033 208.741C465.033 213.511 468.9 217.378 473.67 217.378Z" fill="#FF6584"/>
<path d="M587.082 312.677C587.082 346.008 567.27 357.642 542.825 357.642C542.26 357.642 541.695 357.636 541.136 357.624C540 357.6 538.882 357.546 537.77 357.463C515.71 355.911 498.574 343.676 498.574 312.677C498.574 280.589 539.602 240.085 542.647 237.123L542.653 237.117C542.766 237.004 542.825 236.95 542.825 236.95C542.825 236.95 587.082 279.352 587.082 312.677Z" fill="#6C63FF"/>
<path d="M541.213 352.544L557.403 329.931L541.178 355.025L541.136 357.624C540 357.6 538.882 357.546 537.77 357.463L539.512 324.126L539.501 323.865L539.53 323.817L539.697 320.671L523.43 295.512L539.744 318.309L539.786 318.975L541.1 293.781L527.177 267.783L541.273 289.356L542.647 237.123L542.653 236.95V237.117L542.421 278.311L556.285 261.984L542.361 281.862L541.999 304.415L554.941 282.772L541.945 307.734L541.743 320.278L560.532 290.147L541.671 324.65L541.213 352.544Z" fill="#3F3D56"/>
<path d="M126.735 357.681C126.735 373.801 117.153 379.428 105.33 379.428C105.057 379.428 104.784 379.425 104.513 379.42C103.964 379.408 103.423 379.382 102.885 379.342C92.2154 378.591 83.9276 372.674 83.9276 357.68C83.9276 342.161 103.771 322.571 105.244 321.138L105.247 321.135C105.301 321.081 105.33 321.055 105.33 321.055C105.33 321.055 126.735 341.562 126.735 357.681Z" fill="#6C63FF"/>
<path d="M104.551 376.963L112.381 366.026L104.533 378.163L104.513 379.42C103.964 379.408 103.423 379.382 102.885 379.342L103.728 363.218L103.722 363.092L103.737 363.069L103.817 361.547L95.9493 349.379L103.84 360.405L103.86 360.727L104.496 348.542L97.7617 335.968L104.579 346.401L105.244 321.138L105.247 321.055V321.135L105.135 341.059L111.84 333.163L105.106 342.777L104.93 353.685L111.19 343.217L104.904 355.29L104.807 361.357L113.894 346.784L104.772 363.471L104.551 376.963Z" fill="#3F3D56"/>
<path d="M498.468 368.27C498.468 384.391 488.886 390.017 477.063 390.017C476.79 390.017 476.516 390.014 476.246 390.009C475.697 389.997 475.156 389.971 474.618 389.931C463.948 389.18 455.66 383.263 455.66 368.27C455.66 352.75 475.504 333.16 476.977 331.727L476.98 331.724C477.034 331.67 477.063 331.644 477.063 331.644C477.063 331.644 498.468 352.152 498.468 368.27Z" fill="#6C63FF"/>
<path d="M476.283 387.552L484.114 376.615L476.266 388.752L476.246 390.009C475.697 389.997 475.156 389.971 474.618 389.931L475.461 373.807L475.455 373.681L475.469 373.658L475.55 372.136L467.682 359.968L475.573 370.994L475.593 371.316L476.229 359.13L469.495 346.556L476.312 356.99L476.977 331.727L476.98 331.644V331.724L476.867 351.648L483.573 343.752L476.839 353.366L476.663 364.274L482.923 353.806L476.637 365.879L476.539 371.946L485.627 357.373L476.505 374.06L476.283 387.552Z" fill="#3F3D56"/>
<path opacity="0.3" d="M210.467 52.0561C215.142 52.455 219.27 49.1455 219.687 44.6642C220.103 40.1828 216.65 36.2266 211.974 35.8277C207.298 35.4288 203.17 38.7383 202.754 43.2196C202.337 47.701 205.791 51.6572 210.467 52.0561Z" fill="#2F2E41"/>
<path opacity="0.5" d="M224.602 34.9804C229.553 35.4028 233.924 31.8986 234.364 27.1537C234.805 22.4088 231.149 18.2198 226.198 17.7975C221.247 17.3751 216.876 20.8793 216.435 25.6242C215.995 30.3691 219.651 34.5581 224.602 34.9804Z" fill="#2F2E41"/>
<path opacity="0.3" d="M238.826 16.9506C243.502 17.3495 247.63 14.04 248.046 9.55871C248.462 5.07737 245.009 1.12116 240.333 0.722266C235.657 0.323369 231.529 3.63284 231.113 8.11417C230.697 12.5955 234.15 16.5517 238.826 16.9506Z" fill="white"/>
</svg>
