<svg width="63" height="63" viewBox="0 0 63 63" fill="none" xmlns="http://www.w3.org/2000/svg">
<path d="M50.6866 18.2169H12.3135C12.2489 18.2169 12.1849 18.2042 12.1252 18.1795C12.0654 18.1547 12.0112 18.1185 11.9655 18.0728C11.9198 18.0271 11.8836 17.9728 11.8589 17.9131C11.8342 17.8534 11.8215 17.7894 11.8215 17.7248V7.88559C11.8215 7.82097 11.8342 7.75698 11.8589 7.69727C11.8836 7.63757 11.9198 7.58331 11.9655 7.53762C12.0112 7.49193 12.0655 7.4557 12.1252 7.43099C12.1849 7.40629 12.2489 7.3936 12.3135 7.39365H50.6865C50.7511 7.3936 50.8151 7.40629 50.8748 7.43099C50.9345 7.4557 50.9888 7.49193 51.0345 7.53762C51.0802 7.58331 51.1164 7.63757 51.1411 7.69727C51.1658 7.75698 51.1785 7.82097 51.1784 7.88559V17.7248C51.1785 17.7894 51.1659 17.8534 51.1412 17.9131C51.1165 17.9729 51.0803 18.0271 51.0346 18.0728C50.9889 18.1185 50.9347 18.1548 50.875 18.1795C50.8152 18.2042 50.7512 18.2169 50.6866 18.2169ZM12.8054 17.233H50.1946V8.37753H12.8054V17.233Z" fill="#CD773A"/>
<path d="M18.2171 16.249H15.2654C15.1764 16.249 15.0891 16.2249 15.0128 16.1792C14.9365 16.1335 14.874 16.068 14.832 15.9896C14.7896 15.9111 14.7695 15.8226 14.7737 15.7336C14.7779 15.6445 14.8064 15.5583 14.856 15.4842L18.7916 9.58069C18.8367 9.51337 18.8976 9.45817 18.9689 9.41995C19.0403 9.38173 19.12 9.36167 19.201 9.36154H22.1528C22.3344 9.36154 22.5005 9.46146 22.586 9.62105C22.6284 9.69949 22.6486 9.78801 22.6443 9.87706C22.6401 9.96611 22.6117 10.0523 22.562 10.1264L18.6264 16.0299C18.5814 16.0972 18.5205 16.1524 18.4491 16.1906C18.3778 16.2288 18.2981 16.2489 18.2171 16.249ZM16.1848 15.2651H17.9538L21.2331 10.3454H19.4642L16.1848 15.2651ZM24.1206 16.249H21.1688C21.0798 16.249 20.9926 16.2249 20.9162 16.1792C20.8399 16.1335 20.7774 16.068 20.7354 15.9896C20.6931 15.9111 20.6729 15.8226 20.6771 15.7336C20.6814 15.6445 20.7098 15.5583 20.7594 15.4842L24.6951 9.58069C24.7401 9.51337 24.801 9.45817 24.8724 9.41995C24.9438 9.38173 25.0235 9.36167 25.1044 9.36154H28.0562C28.2378 9.36154 28.4041 9.46146 28.4896 9.62105C28.532 9.69949 28.5521 9.78801 28.5479 9.87706C28.5437 9.96611 28.5152 10.0523 28.4656 10.1264L24.5299 16.0299C24.4849 16.0973 24.424 16.1524 24.3526 16.1906C24.2812 16.2288 24.2015 16.2489 24.1206 16.249ZM22.0884 15.2651H23.8574L27.1368 10.3454H25.3679L22.0884 15.2651ZM30.0242 16.249H27.0725C26.9835 16.249 26.8962 16.2249 26.8199 16.1792C26.7436 16.1335 26.6811 16.068 26.6391 15.9896C26.5967 15.9111 26.5766 15.8226 26.5808 15.7336C26.585 15.6445 26.6135 15.5583 26.6631 15.4842L30.5987 9.58069C30.6437 9.51337 30.7046 9.45817 30.776 9.41995C30.8474 9.38173 30.9271 9.36167 31.0081 9.36154H33.9599C34.1415 9.36154 34.3076 9.46146 34.3931 9.62105C34.4355 9.69949 34.4557 9.78801 34.4514 9.87706C34.4472 9.96611 34.4187 10.0523 34.3691 10.1264L30.4335 16.0299C30.3885 16.0972 30.3276 16.1524 30.2562 16.1906C30.1849 16.2288 30.1052 16.2489 30.0242 16.249ZM27.992 15.2651H29.7609L33.0402 10.3454H31.2713L27.992 15.2651ZM43.7991 15.2651C42.4424 15.2651 41.3393 14.162 41.3393 12.8053C41.3393 11.4485 42.4424 10.3454 43.7991 10.3454C45.1558 10.3454 46.2589 11.4485 46.2589 12.8053C46.2589 14.162 45.1558 15.2651 43.7991 15.2651ZM43.7991 11.3294C42.9852 11.3294 42.3233 11.9914 42.3233 12.8053C42.3233 13.6191 42.9852 14.2812 43.7991 14.2812C44.6129 14.2812 45.275 13.6192 45.275 12.8053C45.275 11.9913 44.6129 11.3294 43.7991 11.3294ZM50.6866 28.0561H12.3135C12.2489 28.0561 12.1849 28.0434 12.1252 28.0187C12.0655 27.994 12.0112 27.9578 11.9655 27.9121C11.9198 27.8664 11.8836 27.8121 11.8589 27.7524C11.8342 27.6927 11.8215 27.6287 11.8215 27.5641V19.6927C11.8215 19.4207 12.0415 19.2007 12.3135 19.2007C12.5854 19.2007 12.8054 19.4207 12.8054 19.6927V27.0722H50.1946V19.6927C50.1946 19.4207 50.4146 19.2007 50.6865 19.2007C50.9584 19.2007 51.1784 19.4207 51.1784 19.6927V27.5641C51.1785 27.6287 51.1658 27.6927 51.1411 27.7524C51.1165 27.8121 51.0802 27.8664 51.0345 27.9121C50.9889 27.9578 50.9346 27.994 50.8749 28.0187C50.8152 28.0434 50.7512 28.0561 50.6866 28.0561Z" fill="#CD773A"/>
<path d="M18.2171 26.0883H15.2653C15.1764 26.0883 15.0891 26.0642 15.0128 26.0185C14.9364 25.9728 14.8739 25.9073 14.8319 25.8289C14.7896 25.7504 14.7694 25.6619 14.7736 25.5728C14.7779 25.4838 14.8063 25.3975 14.8559 25.3234L18.7916 19.4199C18.8366 19.3526 18.8975 19.2974 18.9689 19.2592C19.0403 19.221 19.12 19.2009 19.201 19.2009H22.1527C22.3344 19.2009 22.5005 19.3008 22.586 19.4602C22.6283 19.5387 22.6485 19.6272 22.6443 19.7163C22.64 19.8053 22.6116 19.8915 22.562 19.9656L18.6263 25.8691C18.5813 25.9364 18.5205 25.9916 18.4491 26.0299C18.3777 26.0681 18.298 26.0881 18.2171 26.0883ZM16.1847 25.1043H17.9538L21.2331 20.1846H19.4642L16.1847 25.1043ZM24.1205 26.0883H21.1687C21.0798 26.0883 20.9925 26.0642 20.9162 26.0185C20.8399 25.9728 20.7774 25.9073 20.7354 25.8289C20.693 25.7504 20.6728 25.6619 20.6771 25.5728C20.6813 25.4838 20.7097 25.3975 20.7594 25.3234L24.695 19.4199C24.74 19.3526 24.8009 19.2974 24.8723 19.2592C24.9437 19.221 25.0234 19.2009 25.1044 19.2009H28.0562C28.2378 19.2009 28.404 19.3008 28.4895 19.4602C28.5319 19.5387 28.552 19.6272 28.5478 19.7163C28.5436 19.8053 28.5151 19.8915 28.4655 19.9656L24.5299 25.8691C24.4849 25.9365 24.424 25.9917 24.3526 26.0299C24.2812 26.0681 24.2015 26.0882 24.1205 26.0883ZM22.0884 25.1043H23.8573L27.1367 20.1846H25.3678L22.0884 25.1043ZM30.0242 26.0883H27.0724C26.9834 26.0883 26.8962 26.0642 26.8198 26.0185C26.7435 25.9728 26.681 25.9073 26.639 25.8289C26.5967 25.7504 26.5765 25.6619 26.5807 25.5728C26.585 25.4838 26.6134 25.3975 26.663 25.3234L30.5987 19.4199C30.6437 19.3526 30.7046 19.2974 30.776 19.2592C30.8474 19.221 30.9271 19.2009 31.008 19.2009H33.9598C34.1414 19.2009 34.3075 19.3008 34.3931 19.4602C34.4354 19.5387 34.4556 19.6272 34.4514 19.7163C34.4471 19.8053 34.4187 19.8915 34.3691 19.9656L30.4334 25.8691C30.3884 25.9364 30.3276 25.9916 30.2562 26.0299C30.1848 26.0681 30.1051 26.0881 30.0242 26.0883ZM27.9919 25.1043H29.7608L33.0402 20.1846H31.2712L27.9919 25.1043ZM43.799 25.1043C42.4423 25.1043 41.3392 24.0012 41.3392 22.6444C41.3392 21.2877 42.4423 20.1846 43.799 20.1846C45.1557 20.1846 46.2588 21.2877 46.2588 22.6444C46.2588 24.0013 45.1557 25.1043 43.799 25.1043ZM43.799 21.1686C42.9852 21.1686 42.3232 21.8306 42.3232 22.6446C42.3232 23.4585 42.9852 24.1204 43.799 24.1204C44.6129 24.1204 45.275 23.4584 45.275 22.6446C45.275 21.8307 44.6129 21.1686 43.799 21.1686ZM12.3134 33.9601C12.1829 33.96 12.0578 33.9081 11.9656 33.8159C11.8733 33.7236 11.8215 33.5985 11.8215 33.468V29.532C11.8215 29.2601 12.0415 29.0401 12.3134 29.0401C12.5853 29.0401 12.8054 29.2601 12.8054 29.532V33.468C12.8053 33.5985 12.7535 33.7236 12.6612 33.8159C12.569 33.9081 12.4439 33.96 12.3134 33.9601ZM50.6866 31.9917C50.6219 31.9917 50.558 31.9791 50.4983 31.9544C50.4385 31.9296 50.3843 31.8934 50.3386 31.8477C50.2929 31.802 50.2567 31.7478 50.232 31.6881C50.2073 31.6284 50.1946 31.5644 50.1946 31.4998V29.5319C50.1946 29.2599 50.4146 29.0399 50.6866 29.0399C50.9585 29.0399 51.1785 29.2599 51.1785 29.5319V31.4998C51.1786 31.5644 51.1659 31.6284 51.1412 31.6881C51.1165 31.7478 51.0802 31.802 51.0345 31.8477C50.9888 31.8934 50.9346 31.9296 50.8749 31.9544C50.8152 31.9791 50.7512 31.9917 50.6866 31.9917ZM21.1689 31.4999C21.0798 31.4998 20.9925 31.4756 20.9162 31.4298C20.8398 31.3841 20.7773 31.3184 20.7353 31.24C20.6933 31.1615 20.6733 31.0731 20.6776 30.9841C20.6819 30.8952 20.7102 30.8091 20.7595 30.735L21.2332 30.0241H19.4643L18.6263 31.2809C18.5521 31.3851 18.4403 31.4563 18.3145 31.4795C18.1886 31.5027 18.0587 31.4759 17.9523 31.405C17.8459 31.334 17.7712 31.2244 17.7442 31.0993C17.7172 30.9742 17.74 30.8436 17.8077 30.735L18.7917 29.2591C18.8367 29.1918 18.8976 29.1366 18.969 29.0984C19.0404 29.0602 19.1201 29.0401 19.2011 29.0401H22.1529C22.3345 29.0401 22.5006 29.14 22.5861 29.2994C22.6285 29.3779 22.6486 29.4664 22.6444 29.5554C22.6402 29.6445 22.6117 29.7307 22.5621 29.8048L21.5782 31.2807C21.5333 31.3481 21.4724 31.4034 21.401 31.4416C21.3296 31.4799 21.2499 31.4999 21.1689 31.4999ZM26.7447 31.9917C26.6557 31.9917 26.5683 31.9676 26.4919 31.9218C26.4155 31.8761 26.353 31.8104 26.311 31.7319C26.269 31.6534 26.2491 31.565 26.2534 31.4761C26.2577 31.3871 26.2861 31.301 26.3355 31.227L27.1369 30.0241H25.3679L24.53 31.2809C24.4569 31.3877 24.3446 31.4615 24.2175 31.4861C24.0904 31.5107 23.9587 31.4842 23.851 31.4124C23.7433 31.3406 23.6682 31.2292 23.6421 31.1024C23.616 30.9756 23.6409 30.8436 23.7115 30.735L24.6954 29.2591C24.7404 29.1918 24.8013 29.1366 24.8727 29.0984C24.9441 29.0602 25.0238 29.0401 25.1048 29.0401H28.0565C28.2381 29.0401 28.4044 29.14 28.4899 29.2994C28.5323 29.3779 28.5524 29.4664 28.5482 29.5554C28.544 29.6445 28.5155 29.7307 28.4659 29.8048L27.1543 31.7726C27.1094 31.84 27.0484 31.8952 26.977 31.9334C26.9055 31.9717 26.8258 31.9917 26.7447 31.9917ZM30.6804 34.944C30.5832 34.944 30.4883 34.9152 30.4075 34.8613C30.1817 34.7096 30.1201 34.4039 30.2711 34.1791L33.0403 30.0239H31.2714L29.4495 32.7569C29.2977 32.9837 28.9912 33.0414 28.7674 32.8934C28.5416 32.7415 28.48 32.4364 28.6309 32.2106L30.5988 29.259C30.6438 29.1916 30.7047 29.1365 30.7761 29.0983C30.8475 29.0601 30.9272 29.04 31.0082 29.0399H33.9599C34.1416 29.0399 34.3077 29.1398 34.3932 29.2993C34.4356 29.3778 34.4557 29.4663 34.4515 29.5553C34.4473 29.6444 34.4188 29.7306 34.3692 29.8047L31.0898 34.7247C31.0449 34.7921 30.984 34.8475 30.9126 34.8857C30.8412 34.924 30.7614 34.944 30.6804 34.944ZM41.8313 32.9761C41.7007 32.976 41.5756 32.9241 41.4833 32.8317C41.391 32.7394 41.3392 32.6142 41.3392 32.4836C41.3392 31.127 42.4423 30.0239 43.799 30.0239C44.6734 30.0239 45.4892 30.4947 45.9292 31.2528C45.9617 31.3087 45.9828 31.3704 45.9914 31.4345C46 31.4985 45.9959 31.5636 45.9793 31.6261C45.9627 31.6885 45.934 31.7471 45.8947 31.7984C45.8555 31.8498 45.8065 31.8929 45.7505 31.9253C45.6946 31.9577 45.6329 31.9789 45.5688 31.9874C45.5048 31.996 45.4396 31.9919 45.3772 31.9753C45.3147 31.9587 45.2561 31.93 45.2047 31.8907C45.1534 31.8515 45.1103 31.8025 45.0778 31.7466C44.8137 31.2912 44.3236 31.0078 43.7989 31.0078C42.9851 31.0078 42.3231 31.6698 42.3231 32.4836C42.3231 32.6142 42.2714 32.7394 42.1791 32.8317C42.0869 32.924 41.9618 32.976 41.8313 32.9761ZM12.3134 8.37753C12.2123 8.37759 12.1137 8.3465 12.0309 8.28849C11.9481 8.23048 11.8852 8.14837 11.8507 8.05333C11.8163 7.9583 11.812 7.85495 11.8383 7.75737C11.8647 7.65978 11.9205 7.57269 11.9982 7.50796L17.9018 2.5883C17.9514 2.54685 18.0086 2.51559 18.0703 2.49629C18.132 2.477 18.1968 2.47006 18.2612 2.47586C18.3255 2.48167 18.3881 2.50011 18.4453 2.53013C18.5025 2.56015 18.5532 2.60116 18.5946 2.65081C18.636 2.70039 18.6672 2.75764 18.6865 2.81929C18.7057 2.88094 18.7127 2.94577 18.7069 3.0101C18.7011 3.07443 18.6827 3.13699 18.6527 3.1942C18.6227 3.25142 18.5818 3.30217 18.5322 3.34356L12.6287 8.26322C12.5403 8.33723 12.4287 8.37771 12.3134 8.37753ZM50.6866 8.37753C50.5713 8.37763 50.4597 8.33716 50.3713 8.26322L44.4679 3.34356C44.3678 3.25993 44.305 3.14 44.2933 3.01012C44.2816 2.88023 44.3219 2.751 44.4054 2.65081C44.4892 2.55096 44.6091 2.48834 44.7389 2.47662C44.8687 2.46491 44.9979 2.50506 45.0981 2.5883L51.0018 7.50796C51.0792 7.57279 51.1349 7.65987 51.1611 7.75739C51.1874 7.85491 51.183 7.95815 51.1486 8.05309C51.1142 8.14804 51.0514 8.2301 50.9687 8.28814C50.8861 8.34617 50.7876 8.37738 50.6866 8.37753Z" fill="#CD773A"/>
<path d="M44.783 3.45797H18.217C17.9451 3.45797 17.725 3.23797 17.725 2.96603C17.725 2.6941 17.9451 2.47397 18.217 2.47397H44.783C45.0548 2.47397 45.2749 2.6941 45.2749 2.96603C45.2749 3.23797 45.0548 3.45797 44.783 3.45797Z" fill="#CD773A"/>
<path d="M21.1689 56.5902H0.506347C0.441708 56.5904 0.377679 56.5777 0.317935 56.5531C0.258192 56.5284 0.203909 56.4921 0.158202 56.4464C0.112495 56.4007 0.0762643 56.3465 0.0515879 56.2867C0.0269114 56.227 0.0142756 56.1629 0.0144053 56.0983C0.0144705 55.9678 0.0663208 55.8428 0.158564 55.7505C0.250806 55.6583 0.375896 55.6064 0.506347 55.6064H21.1687C21.2992 55.6065 21.4243 55.6583 21.5165 55.7505C21.6087 55.8428 21.6606 55.9679 21.6607 56.0983C21.6608 56.1629 21.6482 56.2269 21.6235 56.2867C21.5988 56.3464 21.5626 56.4007 21.5169 56.4464C21.4712 56.4921 21.417 56.5283 21.3572 56.553C21.2975 56.5777 21.2335 56.5904 21.1689 56.5902Z" fill="#CD773A"/>
<path d="M21.1689 59.542H0.506347C0.441708 59.5421 0.377679 59.5295 0.317935 59.5048C0.258192 59.4802 0.203909 59.4439 0.158202 59.3982C0.112495 59.3525 0.0762643 59.2982 0.0515879 59.2385C0.0269114 59.1787 0.0142756 59.1147 0.0144053 59.0501C0.0144705 58.9196 0.0663208 58.7945 0.158564 58.7023C0.250806 58.6101 0.375896 58.5582 0.506347 58.5581H21.1687C21.2992 58.5582 21.4243 58.6101 21.5165 58.7023C21.6087 58.7946 21.6606 58.9196 21.6607 59.0501C21.6608 59.1147 21.6482 59.1787 21.6235 59.2385C21.5988 59.2982 21.5626 59.3525 21.5169 59.3982C21.4712 59.4439 21.417 59.4801 21.3572 59.5048C21.2975 59.5295 21.2335 59.5421 21.1689 59.542Z" fill="#CD773A"/>
<path d="M62.4937 59.542H41.8313C41.7667 59.5421 41.7026 59.5295 41.6429 59.5048C41.5831 59.4802 41.5288 59.4439 41.4831 59.3982C41.4374 59.3525 41.4011 59.2982 41.3765 59.2385C41.3518 59.1788 41.3391 59.1147 41.3392 59.0501C41.3393 58.9196 41.3912 58.7945 41.4835 58.7023C41.5757 58.61 41.7008 58.5582 41.8313 58.5581H62.4937C62.6241 58.5582 62.7492 58.6101 62.8415 58.7023C62.9337 58.7945 62.9856 58.9196 62.9856 59.0501C62.9858 59.1147 62.9731 59.1787 62.9485 59.2385C62.9238 59.2982 62.8875 59.3525 62.8418 59.3982C62.7961 59.4439 62.7419 59.4802 62.6821 59.5048C62.6224 59.5295 62.5583 59.5421 62.4937 59.542Z" fill="#CD773A"/>
<path d="M62.4937 56.5902H41.8313C41.7667 56.5904 41.7026 56.5777 41.6429 56.5531C41.5831 56.5284 41.5288 56.4922 41.4831 56.4464C41.4374 56.4007 41.4011 56.3465 41.3765 56.2867C41.3518 56.227 41.3391 56.1629 41.3392 56.0983C41.3393 55.9678 41.3912 55.8427 41.4835 55.7505C41.5757 55.6583 41.7008 55.6064 41.8313 55.6064H62.4937C62.6241 55.6064 62.7492 55.6583 62.8415 55.7505C62.9337 55.8428 62.9856 55.9678 62.9856 56.0983C62.9858 56.1629 62.9731 56.227 62.9485 56.2867C62.9238 56.3465 62.8875 56.4007 62.8418 56.4464C62.7961 56.4921 62.7419 56.5284 62.6821 56.5531C62.6224 56.5777 62.5583 56.5904 62.4937 56.5902Z" fill="#CD773A"/>
<path d="M39.8633 60.5261H23.1366C23.072 60.5263 23.0079 60.5136 22.9482 60.4889C22.8884 60.4642 22.8341 60.428 22.7884 60.3823C22.7427 60.3365 22.7065 60.2823 22.6818 60.2225C22.6572 60.1628 22.6445 60.0987 22.6447 60.0341V55.1145C22.6447 54.9841 22.6966 54.859 22.7888 54.7668C22.8811 54.6745 23.0061 54.6227 23.1366 54.6226H28.5481V48.227C28.5482 48.0965 28.6 47.9714 28.6923 47.8792C28.7846 47.787 28.9097 47.7351 29.0401 47.735C29.1706 47.7351 29.2956 47.787 29.3879 47.8792C29.4801 47.9715 29.532 48.0965 29.5321 48.227V55.1145C29.5322 55.1792 29.5195 55.2432 29.4949 55.3029C29.4702 55.3627 29.434 55.4169 29.3882 55.4626C29.3425 55.5084 29.2883 55.5446 29.2285 55.5693C29.1688 55.5939 29.1048 55.6066 29.0401 55.6065H23.6285V59.5421H39.3713V55.6065H33.9598C33.8952 55.6066 33.8311 55.594 33.7714 55.5693C33.7116 55.5446 33.6573 55.5084 33.6116 55.4627C33.5659 55.417 33.5297 55.3627 33.505 55.303C33.4803 55.2432 33.4676 55.1792 33.4677 55.1145V48.227C33.4677 47.956 33.6879 47.735 33.9598 47.735C34.0902 47.7351 34.2153 47.787 34.3076 47.8792C34.3998 47.9715 34.4517 48.0965 34.4517 48.227V54.6226H39.8632C39.9937 54.6227 40.1188 54.6745 40.211 54.7668C40.3032 54.859 40.3551 54.9841 40.3552 55.1145V60.0341C40.3553 60.0987 40.3427 60.1627 40.318 60.2225C40.2934 60.2822 40.2571 60.3365 40.2115 60.3823C40.1658 60.428 40.1115 60.4642 40.0517 60.4889C39.992 60.5136 39.928 60.5263 39.8633 60.5261Z" fill="#CD773A"/>
<path d="M31.9919 57.5742C31.9273 57.5744 31.8633 57.5617 31.8035 57.537C31.7438 57.5124 31.6895 57.4761 31.6438 57.4304C31.598 57.3847 31.5618 57.3304 31.5371 57.2706C31.5125 57.2109 31.4999 57.1468 31.5 57.0822V48.2269C31.5001 48.0964 31.5519 47.9713 31.6442 47.8791C31.7364 47.7868 31.8615 47.735 31.9919 47.7349C32.1224 47.735 32.2475 47.7868 32.3397 47.8791C32.432 47.9713 32.4838 48.0964 32.4839 48.2269V57.0822C32.484 57.1468 32.4714 57.2109 32.4467 57.2706C32.4221 57.3304 32.3858 57.3847 32.3401 57.4304C32.2944 57.4761 32.2401 57.5124 32.1804 57.537C32.1206 57.5617 32.0566 57.5744 31.9919 57.5742Z" fill="#CD773A"/>
<path d="M37.8956 57.5742H31.9919C31.9273 57.5744 31.8633 57.5617 31.8035 57.5371C31.7438 57.5124 31.6895 57.4761 31.6438 57.4304C31.598 57.3847 31.5618 57.3304 31.5371 57.2706C31.5125 57.2109 31.4999 57.1468 31.5 57.0822C31.5001 56.9517 31.552 56.8267 31.6442 56.7344C31.7364 56.6422 31.8615 56.5903 31.9919 56.5902H37.8956C38.026 56.5903 38.1511 56.6422 38.2434 56.7344C38.3356 56.8267 38.3875 56.9517 38.3876 57.0822C38.3877 57.1468 38.3751 57.2109 38.3504 57.2706C38.3257 57.3304 38.2895 57.3847 38.2438 57.4304C38.1981 57.4761 38.1438 57.5124 38.084 57.5371C38.0243 57.5617 37.9603 57.5744 37.8956 57.5742Z" fill="#CD773A"/>
<path d="M9.36166 46.7511C4.2076 46.7511 0.0144043 42.5579 0.0144043 37.4038C0.0144043 33.2048 2.88927 29.4811 6.90958 28.3875C6.90462 28.2771 6.90208 28.1666 6.90195 28.056C6.90195 25.5568 8.0501 23.2614 10.0517 21.7595C10.1032 21.7205 10.1619 21.6921 10.2245 21.6759C10.287 21.6597 10.3522 21.656 10.4161 21.6652C10.4801 21.6743 10.5416 21.696 10.5971 21.729C10.6527 21.762 10.7011 21.8057 10.7397 21.8576C10.7786 21.9091 10.807 21.9678 10.8232 22.0303C10.8393 22.0929 10.8429 22.158 10.8338 22.2219C10.8247 22.2859 10.8031 22.3474 10.7701 22.4029C10.7371 22.4584 10.6935 22.5069 10.6417 22.5455C8.89002 23.8609 7.88596 25.8691 7.88596 28.056C7.88596 28.2799 7.89851 28.501 7.91955 28.72C7.93071 28.8394 7.89792 28.9588 7.82733 29.0557C7.75673 29.1526 7.6532 29.2205 7.53614 29.2465C3.74851 30.0901 0.99841 33.5198 0.99841 37.4038C0.99841 42.014 4.7506 45.7672 9.36178 45.7672H46.259C54.9395 45.7652 62.0017 38.7028 62.0017 30.023C62.0044 26.9396 61.1008 23.9234 59.4032 21.3495C57.7056 18.7755 55.2889 16.7572 52.4535 15.5456C52.3338 15.4938 52.2394 15.3967 52.191 15.2755C52.1426 15.1544 52.144 15.019 52.195 14.8989C52.2467 14.779 52.3438 14.6845 52.465 14.6361C52.5862 14.5876 52.7217 14.5892 52.8418 14.6404C55.8539 15.9282 58.4213 18.0728 60.2247 20.8076C62.0282 23.5425 62.9882 26.747 62.9855 30.023C62.9855 39.2465 55.4822 46.7491 46.2587 46.7491L9.36166 46.7511Z" fill="#CD773A"/>
<path d="M32.237 38.8797C32.1593 38.8797 32.0827 38.8612 32.0136 38.8258C31.9445 38.7904 31.8847 38.7391 31.8393 38.6761C29.2506 35.1074 25.0776 32.9762 20.6768 32.9762C16.2752 32.9762 12.103 35.1074 9.51648 38.6761C9.35504 38.8971 9.04558 38.9413 8.82951 38.7856C8.60938 38.6261 8.55955 38.3186 8.71902 38.0996C11.4902 34.2754 15.9609 31.9918 20.677 31.9918C25.3919 31.9918 29.8628 34.2754 32.635 38.0977C32.7116 38.2034 32.7431 38.3351 32.7227 38.4641C32.7024 38.593 32.6318 38.7086 32.5264 38.7856C32.4423 38.8468 32.341 38.8798 32.237 38.8797Z" fill="#CD773A"/>
<path d="M58.1302 40.5163C58.0589 40.5163 57.9885 40.5008 57.9238 40.4709C57.8591 40.4411 57.8016 40.3975 57.7554 40.3433C56.2546 38.5772 54.0665 37.5645 51.7529 37.5645C50.9554 37.5645 50.1674 37.6838 49.4123 37.9182C49.3505 37.9377 49.2855 37.9449 49.221 37.9391C49.1564 37.9333 49.0937 37.9148 49.0364 37.8846C48.9791 37.8543 48.9283 37.813 48.8871 37.763C48.8459 37.713 48.815 37.6554 48.7963 37.5933C48.7771 37.5317 48.7703 37.4669 48.7762 37.4026C48.7821 37.3383 48.8007 37.2759 48.8307 37.2187C48.8608 37.1616 48.9019 37.111 48.9515 37.0698C49.0012 37.0286 49.0585 36.9975 49.1202 36.9785C49.9706 36.7132 50.8564 36.5807 51.7529 36.5807C54.3558 36.5807 56.8166 37.7182 58.5048 39.7054C58.5893 39.8049 58.6309 39.9337 58.6205 40.0638C58.61 40.1939 58.5485 40.3145 58.4492 40.3992C58.3601 40.4748 58.247 40.5163 58.1302 40.5163Z" fill="#CD773A"/>
<path d="M56.9187 38.8797C56.82 38.8798 56.7236 38.8501 56.642 38.7946C56.5604 38.7391 56.4975 38.6603 56.4613 38.5684C55.1152 35.1709 51.8828 32.9762 48.2267 32.9762C45.7544 32.9762 43.4608 33.9697 41.7688 35.7724C41.5834 35.9723 41.2721 35.98 41.0741 35.7936C41.0268 35.7496 40.9888 35.6968 40.962 35.638C40.9353 35.5792 40.9205 35.5158 40.9185 35.4513C40.9164 35.3868 40.9271 35.3225 40.95 35.2622C40.973 35.2018 41.0076 35.1466 41.0519 35.0997C42.9044 33.1242 45.519 31.9918 48.2267 31.9918C52.2883 31.9918 55.8799 34.431 57.3761 38.2052C57.476 38.4589 57.3529 38.7452 57.1002 38.8452C57.0424 38.8678 56.9808 38.8795 56.9187 38.8797Z" fill="#CD773A"/>
</svg>
