<svg width="70" height="63" viewBox="0 0 70 63" fill="none" xmlns="http://www.w3.org/2000/svg">
<g clip-path="url(#clip0_97_76)">
<path d="M35 38.1667C38.6819 38.1667 41.6667 35.1819 41.6667 31.5C41.6667 27.8181 38.6819 24.8333 35 24.8333C31.3181 24.8333 28.3334 27.8181 28.3334 31.5C28.3334 35.1819 31.3181 38.1667 35 38.1667Z" fill="#CD773A"/>
<path d="M35 46.5C53.4095 46.5 68.3333 39.7843 68.3333 31.5C68.3333 23.2157 53.4095 16.5 35 16.5C16.5905 16.5 1.66663 23.2157 1.66663 31.5C1.66663 39.7843 16.5905 46.5 35 46.5Z" stroke="#CD773A"/>
<path d="M22.0096 39C31.2144 54.9431 44.4923 64.5096 51.6667 60.3675C58.8411 56.2254 57.1951 39.9431 47.9904 24C38.7857 8.0569 25.5077 -1.50966 18.3334 2.63248C11.159 6.77461 12.8049 23.0569 22.0096 39Z" stroke="#CD773A"/>
<path d="M22.0096 24C12.8048 39.9431 11.1589 56.2254 18.3333 60.3675C25.5077 64.5096 38.7856 54.9431 47.9903 39C57.1951 23.0569 58.841 6.77461 51.6666 2.63248C44.4922 -1.50966 31.2143 8.0569 22.0096 24Z" stroke="#CD773A"/>
</g>
<defs>
<clipPath id="clip0_97_76">
<rect width="70" height="63" fill="white"/>
</clipPath>
</defs>
</svg>
