<svg width="226" height="27" viewBox="0 0 226 27" fill="none" xmlns="http://www.w3.org/2000/svg">
<path d="M43.7471 26.2885C43.9131 26.2514 44.1713 26.1587 44.3235 26.0799C44.4756 26.0058 45.9465 24.9676 47.5972 23.7718C49.2434 22.5806 52.2543 20.4068 54.2832 18.9468C56.7546 17.167 58.0734 16.1844 58.2762 15.9805C59.1662 15.0813 59.2446 13.6723 58.4607 12.6248C58.2394 12.3236 45.1627 1.56136 44.7292 1.32034C43.7333 0.76879 42.516 0.940281 41.709 1.75139C41.1972 2.26586 40.9528 2.85913 40.9621 3.57754C40.9667 4.19398 41.1234 4.66674 41.4831 5.14413C41.5845 5.27854 43.0093 6.48361 45.2364 8.31903L48.8238 11.2715L25.4093 11.2946L1.99478 11.3178L1.72273 11.4198C0.611488 11.8416 -0.0801574 12.8983 0.0074511 14.0292C0.0904486 15.1092 0.754428 15.9527 1.81956 16.3374C2.02705 16.4116 3.52101 16.4162 25.483 16.4394L48.9252 16.4625L45.2641 19.1044C43.2122 20.583 41.4923 21.8576 41.3494 22.0012C40.5379 22.8216 40.3995 24.1796 41.0266 25.1437C41.3678 25.6721 41.8796 26.0707 42.4376 26.2422C42.7696 26.3488 43.392 26.3719 43.7471 26.2885Z" fill="url(#paint0_linear_125_302)"/>
<path d="M80.531 21L73.887 5.6H77.737L83.545 19.24H81.279L87.175 5.6H90.717L84.051 21H80.531ZM91.9541 21V9.164H95.3861V21H91.9541ZM93.6701 7.514C93.0395 7.514 92.5261 7.33067 92.1301 6.964C91.7341 6.59733 91.5361 6.14267 91.5361 5.6C91.5361 5.05733 91.7341 4.60267 92.1301 4.236C92.5261 3.86933 93.0395 3.686 93.6701 3.686C94.3008 3.686 94.8141 3.862 95.2101 4.214C95.6061 4.55133 95.8041 4.99133 95.8041 5.534C95.8041 6.106 95.6061 6.58267 95.2101 6.964C94.8288 7.33067 94.3155 7.514 93.6701 7.514ZM102.553 21.176C101.541 21.176 100.566 21.0587 99.6273 20.824C98.7033 20.5747 97.97 20.2667 97.4273 19.9L98.5713 17.436C99.114 17.7733 99.752 18.052 100.485 18.272C101.233 18.4773 101.967 18.58 102.685 18.58C103.477 18.58 104.035 18.4847 104.357 18.294C104.695 18.1033 104.863 17.8393 104.863 17.502C104.863 17.2233 104.731 17.018 104.467 16.886C104.218 16.7393 103.881 16.6293 103.455 16.556C103.03 16.4827 102.561 16.4093 102.047 16.336C101.549 16.2627 101.043 16.1673 100.529 16.05C100.016 15.918 99.5466 15.7273 99.1213 15.478C98.696 15.2287 98.3513 14.8913 98.0873 14.466C97.838 14.0407 97.7133 13.4907 97.7133 12.816C97.7133 12.068 97.926 11.408 98.3513 10.836C98.7913 10.264 99.422 9.81667 100.243 9.494C101.065 9.15667 102.047 8.988 103.191 8.988C103.998 8.988 104.819 9.076 105.655 9.252C106.491 9.428 107.188 9.68467 107.745 10.022L106.601 12.464C106.029 12.1267 105.45 11.8993 104.863 11.782C104.291 11.65 103.734 11.584 103.191 11.584C102.429 11.584 101.871 11.6867 101.519 11.892C101.167 12.0973 100.991 12.3613 100.991 12.684C100.991 12.9773 101.116 13.1973 101.365 13.344C101.629 13.4907 101.974 13.608 102.399 13.696C102.825 13.784 103.287 13.8647 103.785 13.938C104.299 13.9967 104.812 14.092 105.325 14.224C105.839 14.356 106.301 14.5467 106.711 14.796C107.137 15.0307 107.481 15.3607 107.745 15.786C108.009 16.1967 108.141 16.7393 108.141 17.414C108.141 18.1473 107.921 18.8 107.481 19.372C107.041 19.9293 106.403 20.3693 105.567 20.692C104.746 21.0147 103.741 21.176 102.553 21.176ZM110.259 21V9.164H113.691V21H110.259ZM111.975 7.514C111.344 7.514 110.831 7.33067 110.435 6.964C110.039 6.59733 109.841 6.14267 109.841 5.6C109.841 5.05733 110.039 4.60267 110.435 4.236C110.831 3.86933 111.344 3.686 111.975 3.686C112.605 3.686 113.119 3.862 113.515 4.214C113.911 4.55133 114.109 4.99133 114.109 5.534C114.109 6.106 113.911 6.58267 113.515 6.964C113.133 7.33067 112.62 7.514 111.975 7.514ZM121.716 21.176C120.323 21.176 119.237 20.824 118.46 20.12C117.683 19.4013 117.294 18.338 117.294 16.93V6.546H120.726V16.886C120.726 17.3847 120.858 17.7733 121.122 18.052C121.386 18.316 121.745 18.448 122.2 18.448C122.743 18.448 123.205 18.3013 123.586 18.008L124.51 20.428C124.158 20.6773 123.733 20.868 123.234 21C122.75 21.1173 122.244 21.176 121.716 21.176ZM115.468 12.068V9.428H123.674V12.068H115.468ZM136.605 21L131.567 5.6H135.263L139.641 19.24H137.793L142.369 5.6H145.669L150.069 19.24H148.287L152.775 5.6H156.185L151.147 21H147.319L143.425 9.032H144.437L140.433 21H136.605ZM162.926 21.176C161.576 21.176 160.388 20.912 159.362 20.384C158.35 19.856 157.565 19.1373 157.008 18.228C156.45 17.304 156.172 16.2553 156.172 15.082C156.172 13.894 156.443 12.8453 156.986 11.936C157.543 11.012 158.298 10.2933 159.252 9.78C160.205 9.252 161.283 8.988 162.486 8.988C163.644 8.988 164.686 9.23733 165.61 9.736C166.548 10.22 167.289 10.924 167.832 11.848C168.374 12.7573 168.646 13.85 168.646 15.126C168.646 15.258 168.638 15.412 168.624 15.588C168.609 15.7493 168.594 15.9033 168.58 16.05H158.966V14.048H166.776L165.456 14.642C165.456 14.026 165.331 13.4907 165.082 13.036C164.832 12.5813 164.488 12.2293 164.048 11.98C163.608 11.716 163.094 11.584 162.508 11.584C161.921 11.584 161.4 11.716 160.946 11.98C160.506 12.2293 160.161 12.5887 159.912 13.058C159.662 13.5127 159.538 14.0553 159.538 14.686V15.214C159.538 15.8593 159.677 16.4313 159.956 16.93C160.249 17.414 160.652 17.788 161.166 18.052C161.694 18.3013 162.31 18.426 163.014 18.426C163.644 18.426 164.194 18.3307 164.664 18.14C165.148 17.9493 165.588 17.6633 165.984 17.282L167.81 19.262C167.267 19.878 166.585 20.3547 165.764 20.692C164.942 21.0147 163.996 21.176 162.926 21.176ZM177.927 21.176C176.885 21.176 175.991 20.956 175.243 20.516C174.495 20.076 173.923 19.4087 173.527 18.514C173.131 17.6047 172.933 16.4607 172.933 15.082C172.933 13.6887 173.138 12.5447 173.549 11.65C173.974 10.7553 174.561 10.088 175.309 9.648C176.057 9.208 176.929 8.988 177.927 8.988C179.041 8.988 180.039 9.23733 180.919 9.736C181.813 10.2347 182.517 10.9387 183.031 11.848C183.559 12.7573 183.823 13.8353 183.823 15.082C183.823 16.314 183.559 17.3847 183.031 18.294C182.517 19.2033 181.813 19.9147 180.919 20.428C180.039 20.9267 179.041 21.176 177.927 21.176ZM170.931 21V4.676H174.363V11.562L174.143 15.06L174.209 18.58V21H170.931ZM177.333 18.36C177.905 18.36 178.411 18.228 178.851 17.964C179.305 17.7 179.665 17.326 179.929 16.842C180.207 16.3433 180.347 15.7567 180.347 15.082C180.347 14.3927 180.207 13.806 179.929 13.322C179.665 12.838 179.305 12.464 178.851 12.2C178.411 11.936 177.905 11.804 177.333 11.804C176.761 11.804 176.247 11.936 175.793 12.2C175.338 12.464 174.979 12.838 174.715 13.322C174.451 13.806 174.319 14.3927 174.319 15.082C174.319 15.7567 174.451 16.3433 174.715 16.842C174.979 17.326 175.338 17.7 175.793 17.964C176.247 18.228 176.761 18.36 177.333 18.36ZM190.102 21.176C189.09 21.176 188.115 21.0587 187.176 20.824C186.252 20.5747 185.519 20.2667 184.976 19.9L186.12 17.436C186.663 17.7733 187.301 18.052 188.034 18.272C188.782 18.4773 189.515 18.58 190.234 18.58C191.026 18.58 191.583 18.4847 191.906 18.294C192.243 18.1033 192.412 17.8393 192.412 17.502C192.412 17.2233 192.28 17.018 192.016 16.886C191.767 16.7393 191.429 16.6293 191.004 16.556C190.579 16.4827 190.109 16.4093 189.596 16.336C189.097 16.2627 188.591 16.1673 188.078 16.05C187.565 15.918 187.095 15.7273 186.67 15.478C186.245 15.2287 185.9 14.8913 185.636 14.466C185.387 14.0407 185.262 13.4907 185.262 12.816C185.262 12.068 185.475 11.408 185.9 10.836C186.34 10.264 186.971 9.81667 187.792 9.494C188.613 9.15667 189.596 8.988 190.74 8.988C191.547 8.988 192.368 9.076 193.204 9.252C194.04 9.428 194.737 9.68467 195.294 10.022L194.15 12.464C193.578 12.1267 192.999 11.8993 192.412 11.782C191.84 11.65 191.283 11.584 190.74 11.584C189.977 11.584 189.42 11.6867 189.068 11.892C188.716 12.0973 188.54 12.3613 188.54 12.684C188.54 12.9773 188.665 13.1973 188.914 13.344C189.178 13.4907 189.523 13.608 189.948 13.696C190.373 13.784 190.835 13.8647 191.334 13.938C191.847 13.9967 192.361 14.092 192.874 14.224C193.387 14.356 193.849 14.5467 194.26 14.796C194.685 15.0307 195.03 15.3607 195.294 15.786C195.558 16.1967 195.69 16.7393 195.69 17.414C195.69 18.1473 195.47 18.8 195.03 19.372C194.59 19.9293 193.952 20.3693 193.116 20.692C192.295 21.0147 191.29 21.176 190.102 21.176ZM197.808 21V9.164H201.24V21H197.808ZM199.524 7.514C198.893 7.514 198.38 7.33067 197.984 6.964C197.588 6.59733 197.39 6.14267 197.39 5.6C197.39 5.05733 197.588 4.60267 197.984 4.236C198.38 3.86933 198.893 3.686 199.524 3.686C200.154 3.686 200.668 3.862 201.064 4.214C201.46 4.55133 201.658 4.99133 201.658 5.534C201.658 6.106 201.46 6.58267 201.064 6.964C200.682 7.33067 200.169 7.514 199.524 7.514ZM209.265 21.176C207.871 21.176 206.786 20.824 206.009 20.12C205.231 19.4013 204.843 18.338 204.843 16.93V6.546H208.275V16.886C208.275 17.3847 208.407 17.7733 208.671 18.052C208.935 18.316 209.294 18.448 209.749 18.448C210.291 18.448 210.753 18.3013 211.135 18.008L212.059 20.428C211.707 20.6773 211.281 20.868 210.783 21C210.299 21.1173 209.793 21.176 209.265 21.176ZM203.017 12.068V9.428H211.223V12.068H203.017ZM219.494 21.176C218.145 21.176 216.957 20.912 215.93 20.384C214.918 19.856 214.133 19.1373 213.576 18.228C213.019 17.304 212.74 16.2553 212.74 15.082C212.74 13.894 213.011 12.8453 213.554 11.936C214.111 11.012 214.867 10.2933 215.82 9.78C216.773 9.252 217.851 8.988 219.054 8.988C220.213 8.988 221.254 9.23733 222.178 9.736C223.117 10.22 223.857 10.924 224.4 11.848C224.943 12.7573 225.214 13.85 225.214 15.126C225.214 15.258 225.207 15.412 225.192 15.588C225.177 15.7493 225.163 15.9033 225.148 16.05H215.534V14.048H223.344L222.024 14.642C222.024 14.026 221.899 13.4907 221.65 13.036C221.401 12.5813 221.056 12.2293 220.616 11.98C220.176 11.716 219.663 11.584 219.076 11.584C218.489 11.584 217.969 11.716 217.514 11.98C217.074 12.2293 216.729 12.5887 216.48 13.058C216.231 13.5127 216.106 14.0553 216.106 14.686V15.214C216.106 15.8593 216.245 16.4313 216.524 16.93C216.817 17.414 217.221 17.788 217.734 18.052C218.262 18.3013 218.878 18.426 219.582 18.426C220.213 18.426 220.763 18.3307 221.232 18.14C221.716 17.9493 222.156 17.6633 222.552 17.282L224.378 19.262C223.835 19.878 223.153 20.3547 222.332 20.692C221.511 21.0147 220.565 21.176 219.494 21.176Z" fill="url(#paint1_linear_125_302)"/>
<defs>
<linearGradient id="paint0_linear_125_302" x1="4.07957e-06" y1="14.162" x2="58.5958" y2="8.77769" gradientUnits="userSpaceOnUse">
<stop stop-color="#CD773A"/>
<stop offset="1" stop-color="#F87171"/>
</linearGradient>
<linearGradient id="paint1_linear_125_302" x1="226" y1="14.0248" x2="80.9275" y2="-18.2058" gradientUnits="userSpaceOnUse">
<stop stop-color="#CD773A"/>
<stop offset="1" stop-color="#F87171"/>
</linearGradient>
</defs>
</svg>
