<svg width="255" height="28" viewBox="0 0 255 28" fill="none" xmlns="http://www.w3.org/2000/svg">
<path d="M43.7471 27.158C43.9131 27.1211 44.1713 27.0289 44.3235 26.9505C44.4756 26.8767 45.9465 25.8438 47.5972 24.6542C49.2434 23.4692 52.2543 21.3067 54.2832 19.8542C56.7546 18.0836 58.0734 17.1061 58.2762 16.9032C59.1662 16.0086 59.2446 14.6069 58.4607 13.5648C58.2394 13.2651 45.1627 2.55846 44.7292 2.31869C43.7333 1.76998 42.516 1.94059 41.709 2.74751C41.1972 3.25933 40.9528 3.84953 40.9621 4.56423C40.9667 5.17749 41.1234 5.64781 41.4831 6.12274C41.5845 6.25645 43.0093 7.45531 45.2364 9.28125L48.8238 12.2184L25.4093 12.2415L1.99478 12.2646L1.72273 12.366C0.611488 12.7856 -0.0801574 13.8369 0.00745107 14.962C0.0904486 16.0363 0.754428 16.8755 1.81956 17.2582C2.02705 17.332 3.52101 17.3366 25.483 17.3597L48.9252 17.3827L45.2641 20.011C43.2122 21.4819 41.4923 22.7499 41.3494 22.8928C40.5379 23.709 40.3995 25.06 41.0266 26.0191C41.3678 26.5447 41.8796 26.9413 42.4376 27.1119C42.7696 27.2179 43.392 27.241 43.7471 27.158Z" fill="url(#paint0_linear_196_72)"/>
<path d="M79.6853 21L73.0413 5.6H76.8913L82.6993 19.24H80.4333L86.3293 5.6H89.8713L83.2053 21H79.6853ZM91.1084 21V9.164H94.5404V21H91.1084ZM92.8244 7.514C92.1937 7.514 91.6804 7.33067 91.2844 6.964C90.8884 6.59733 90.6904 6.14267 90.6904 5.6C90.6904 5.05733 90.8884 4.60267 91.2844 4.236C91.6804 3.86933 92.1937 3.686 92.8244 3.686C93.4551 3.686 93.9684 3.862 94.3644 4.214C94.7604 4.55133 94.9584 4.99133 94.9584 5.534C94.9584 6.106 94.7604 6.58267 94.3644 6.964C93.9831 7.33067 93.4697 7.514 92.8244 7.514ZM101.708 21.176C100.696 21.176 99.7203 21.0587 98.7816 20.824C97.8576 20.5747 97.1243 20.2667 96.5816 19.9L97.7256 17.436C98.2683 17.7733 98.9063 18.052 99.6396 18.272C100.388 18.4773 101.121 18.58 101.84 18.58C102.632 18.58 103.189 18.4847 103.512 18.294C103.849 18.1033 104.018 17.8393 104.018 17.502C104.018 17.2233 103.886 17.018 103.622 16.886C103.372 16.7393 103.035 16.6293 102.61 16.556C102.184 16.4827 101.715 16.4093 101.202 16.336C100.703 16.2627 100.197 16.1673 99.6836 16.05C99.1703 15.918 98.7009 15.7273 98.2756 15.478C97.8503 15.2287 97.5056 14.8913 97.2416 14.466C96.9923 14.0407 96.8676 13.4907 96.8676 12.816C96.8676 12.068 97.0803 11.408 97.5056 10.836C97.9456 10.264 98.5763 9.81667 99.3976 9.494C100.219 9.15667 101.202 8.988 102.346 8.988C103.152 8.988 103.974 9.076 104.81 9.252C105.646 9.428 106.342 9.68467 106.9 10.022L105.756 12.464C105.184 12.1267 104.604 11.8993 104.018 11.782C103.446 11.65 102.888 11.584 102.346 11.584C101.583 11.584 101.026 11.6867 100.674 11.892C100.322 12.0973 100.146 12.3613 100.146 12.684C100.146 12.9773 100.27 13.1973 100.52 13.344C100.784 13.4907 101.128 13.608 101.554 13.696C101.979 13.784 102.441 13.8647 102.94 13.938C103.453 13.9967 103.966 14.092 104.48 14.224C104.993 14.356 105.455 14.5467 105.866 14.796C106.291 15.0307 106.636 15.3607 106.9 15.786C107.164 16.1967 107.296 16.7393 107.296 17.414C107.296 18.1473 107.076 18.8 106.636 19.372C106.196 19.9293 105.558 20.3693 104.722 20.692C103.9 21.0147 102.896 21.176 101.708 21.176ZM109.413 21V9.164H112.845V21H109.413ZM111.129 7.514C110.498 7.514 109.985 7.33067 109.589 6.964C109.193 6.59733 108.995 6.14267 108.995 5.6C108.995 5.05733 109.193 4.60267 109.589 4.236C109.985 3.86933 110.498 3.686 111.129 3.686C111.76 3.686 112.273 3.862 112.669 4.214C113.065 4.55133 113.263 4.99133 113.263 5.534C113.263 6.106 113.065 6.58267 112.669 6.964C112.288 7.33067 111.774 7.514 111.129 7.514ZM120.87 21.176C119.477 21.176 118.392 20.824 117.614 20.12C116.837 19.4013 116.448 18.338 116.448 16.93V6.546H119.88V16.886C119.88 17.3847 120.012 17.7733 120.276 18.052C120.54 18.316 120.9 18.448 121.354 18.448C121.897 18.448 122.359 18.3013 122.74 18.008L123.664 20.428C123.312 20.6773 122.887 20.868 122.388 21C121.904 21.1173 121.398 21.176 120.87 21.176ZM114.622 12.068V9.428H122.828V12.068H114.622ZM132.063 21V5.6H138.729C140.108 5.6 141.296 5.82733 142.293 6.282C143.291 6.722 144.061 7.36 144.603 8.196C145.146 9.032 145.417 10.0293 145.417 11.188C145.417 12.332 145.146 13.322 144.603 14.158C144.061 14.9793 143.291 15.61 142.293 16.05C141.296 16.49 140.108 16.71 138.729 16.71H134.043L135.627 15.148V21H132.063ZM141.853 21L138.003 15.412H141.809L145.703 21H141.853ZM135.627 15.544L134.043 13.872H138.531C139.631 13.872 140.453 13.6373 140.995 13.168C141.538 12.684 141.809 12.024 141.809 11.188C141.809 10.3373 141.538 9.67733 140.995 9.208C140.453 8.73867 139.631 8.504 138.531 8.504H134.043L135.627 6.81V15.544ZM153.873 21.176C152.524 21.176 151.336 20.912 150.309 20.384C149.297 19.856 148.512 19.1373 147.955 18.228C147.398 17.304 147.119 16.2553 147.119 15.082C147.119 13.894 147.39 12.8453 147.933 11.936C148.49 11.012 149.246 10.2933 150.199 9.78C151.152 9.252 152.23 8.988 153.433 8.988C154.592 8.988 155.633 9.23733 156.557 9.736C157.496 10.22 158.236 10.924 158.779 11.848C159.322 12.7573 159.593 13.85 159.593 15.126C159.593 15.258 159.586 15.412 159.571 15.588C159.556 15.7493 159.542 15.9033 159.527 16.05H149.913V14.048H157.723L156.403 14.642C156.403 14.026 156.278 13.4907 156.029 13.036C155.78 12.5813 155.435 12.2293 154.995 11.98C154.555 11.716 154.042 11.584 153.455 11.584C152.868 11.584 152.348 11.716 151.893 11.98C151.453 12.2293 151.108 12.5887 150.859 13.058C150.61 13.5127 150.485 14.0553 150.485 14.686V15.214C150.485 15.8593 150.624 16.4313 150.903 16.93C151.196 17.414 151.6 17.788 152.113 18.052C152.641 18.3013 153.257 18.426 153.961 18.426C154.592 18.426 155.142 18.3307 155.611 18.14C156.095 17.9493 156.535 17.6633 156.931 17.282L158.757 19.262C158.214 19.878 157.532 20.3547 156.711 20.692C155.89 21.0147 154.944 21.176 153.873 21.176ZM168.874 21.176C167.877 21.176 167.004 20.956 166.256 20.516C165.508 20.076 164.921 19.4087 164.496 18.514C164.085 17.6047 163.88 16.4607 163.88 15.082C163.88 13.6887 164.078 12.5447 164.474 11.65C164.87 10.7553 165.442 10.088 166.19 9.648C166.938 9.208 167.833 8.988 168.874 8.988C169.989 8.988 170.986 9.24467 171.866 9.758C172.761 10.2567 173.465 10.9607 173.978 11.87C174.506 12.7793 174.77 13.85 174.77 15.082C174.77 16.3287 174.506 17.4067 173.978 18.316C173.465 19.2253 172.761 19.9293 171.866 20.428C170.986 20.9267 169.989 21.176 168.874 21.176ZM161.878 25.268V9.164H165.156V11.584L165.09 15.104L165.31 18.602V25.268H161.878ZM168.28 18.36C168.852 18.36 169.358 18.228 169.798 17.964C170.253 17.7 170.612 17.326 170.876 16.842C171.155 16.3433 171.294 15.7567 171.294 15.082C171.294 14.3927 171.155 13.806 170.876 13.322C170.612 12.838 170.253 12.464 169.798 12.2C169.358 11.936 168.852 11.804 168.28 11.804C167.708 11.804 167.195 11.936 166.74 12.2C166.285 12.464 165.926 12.838 165.662 13.322C165.398 13.806 165.266 14.3927 165.266 15.082C165.266 15.7567 165.398 16.3433 165.662 16.842C165.926 17.326 166.285 17.7 166.74 17.964C167.195 18.228 167.708 18.36 168.28 18.36ZM182.699 21.176C181.438 21.176 180.316 20.912 179.333 20.384C178.365 19.856 177.595 19.1373 177.023 18.228C176.466 17.304 176.187 16.2553 176.187 15.082C176.187 13.894 176.466 12.8453 177.023 11.936C177.595 11.012 178.365 10.2933 179.333 9.78C180.316 9.252 181.438 8.988 182.699 8.988C183.946 8.988 185.061 9.252 186.043 9.78C187.026 10.2933 187.796 11.0047 188.353 11.914C188.911 12.8233 189.189 13.8793 189.189 15.082C189.189 16.2553 188.911 17.304 188.353 18.228C187.796 19.1373 187.026 19.856 186.043 20.384C185.061 20.912 183.946 21.176 182.699 21.176ZM182.699 18.36C183.271 18.36 183.785 18.228 184.239 17.964C184.694 17.7 185.053 17.326 185.317 16.842C185.581 16.3433 185.713 15.7567 185.713 15.082C185.713 14.3927 185.581 13.806 185.317 13.322C185.053 12.838 184.694 12.464 184.239 12.2C183.785 11.936 183.271 11.804 182.699 11.804C182.127 11.804 181.614 11.936 181.159 12.2C180.705 12.464 180.338 12.838 180.059 13.322C179.795 13.806 179.663 14.3927 179.663 15.082C179.663 15.7567 179.795 16.3433 180.059 16.842C180.338 17.326 180.705 17.7 181.159 17.964C181.614 18.228 182.127 18.36 182.699 18.36ZM195.465 21.176C194.453 21.176 193.478 21.0587 192.539 20.824C191.615 20.5747 190.882 20.2667 190.339 19.9L191.483 17.436C192.026 17.7733 192.664 18.052 193.397 18.272C194.145 18.4773 194.879 18.58 195.597 18.58C196.389 18.58 196.947 18.4847 197.269 18.294C197.607 18.1033 197.775 17.8393 197.775 17.502C197.775 17.2233 197.643 17.018 197.379 16.886C197.13 16.7393 196.793 16.6293 196.367 16.556C195.942 16.4827 195.473 16.4093 194.959 16.336C194.461 16.2627 193.955 16.1673 193.441 16.05C192.928 15.918 192.459 15.7273 192.033 15.478C191.608 15.2287 191.263 14.8913 190.999 14.466C190.75 14.0407 190.625 13.4907 190.625 12.816C190.625 12.068 190.838 11.408 191.263 10.836C191.703 10.264 192.334 9.81667 193.155 9.494C193.977 9.15667 194.959 8.988 196.103 8.988C196.91 8.988 197.731 9.076 198.567 9.252C199.403 9.428 200.1 9.68467 200.657 10.022L199.513 12.464C198.941 12.1267 198.362 11.8993 197.775 11.782C197.203 11.65 196.646 11.584 196.103 11.584C195.341 11.584 194.783 11.6867 194.431 11.892C194.079 12.0973 193.903 12.3613 193.903 12.684C193.903 12.9773 194.028 13.1973 194.277 13.344C194.541 13.4907 194.886 13.608 195.311 13.696C195.737 13.784 196.199 13.8647 196.697 13.938C197.211 13.9967 197.724 14.092 198.237 14.224C198.751 14.356 199.213 14.5467 199.623 14.796C200.049 15.0307 200.393 15.3607 200.657 15.786C200.921 16.1967 201.053 16.7393 201.053 17.414C201.053 18.1473 200.833 18.8 200.393 19.372C199.953 19.9293 199.315 20.3693 198.479 20.692C197.658 21.0147 196.653 21.176 195.465 21.176ZM203.171 21V9.164H206.603V21H203.171ZM204.887 7.514C204.256 7.514 203.743 7.33067 203.347 6.964C202.951 6.59733 202.753 6.14267 202.753 5.6C202.753 5.05733 202.951 4.60267 203.347 4.236C203.743 3.86933 204.256 3.686 204.887 3.686C205.518 3.686 206.031 3.862 206.427 4.214C206.823 4.55133 207.021 4.99133 207.021 5.534C207.021 6.106 206.823 6.58267 206.427 6.964C206.046 7.33067 205.532 7.514 204.887 7.514ZM214.628 21.176C213.235 21.176 212.149 20.824 211.372 20.12C210.595 19.4013 210.206 18.338 210.206 16.93V6.546H213.638V16.886C213.638 17.3847 213.77 17.7733 214.034 18.052C214.298 18.316 214.657 18.448 215.112 18.448C215.655 18.448 216.117 18.3013 216.498 18.008L217.422 20.428C217.07 20.6773 216.645 20.868 216.146 21C215.662 21.1173 215.156 21.176 214.628 21.176ZM208.38 12.068V9.428H216.586V12.068H208.38ZM224.615 21.176C223.354 21.176 222.232 20.912 221.249 20.384C220.281 19.856 219.511 19.1373 218.939 18.228C218.382 17.304 218.103 16.2553 218.103 15.082C218.103 13.894 218.382 12.8453 218.939 11.936C219.511 11.012 220.281 10.2933 221.249 9.78C222.232 9.252 223.354 8.988 224.615 8.988C225.862 8.988 226.977 9.252 227.959 9.78C228.942 10.2933 229.712 11.0047 230.269 11.914C230.827 12.8233 231.105 13.8793 231.105 15.082C231.105 16.2553 230.827 17.304 230.269 18.228C229.712 19.1373 228.942 19.856 227.959 20.384C226.977 20.912 225.862 21.176 224.615 21.176ZM224.615 18.36C225.187 18.36 225.701 18.228 226.155 17.964C226.61 17.7 226.969 17.326 227.233 16.842C227.497 16.3433 227.629 15.7567 227.629 15.082C227.629 14.3927 227.497 13.806 227.233 13.322C226.969 12.838 226.61 12.464 226.155 12.2C225.701 11.936 225.187 11.804 224.615 11.804C224.043 11.804 223.53 11.936 223.075 12.2C222.621 12.464 222.254 12.838 221.975 13.322C221.711 13.806 221.579 14.3927 221.579 15.082C221.579 15.7567 221.711 16.3433 221.975 16.842C222.254 17.326 222.621 17.7 223.075 17.964C223.53 18.228 224.043 18.36 224.615 18.36ZM233.399 21V9.164H236.677V12.508L236.215 11.54C236.567 10.704 237.132 10.0733 237.909 9.648C238.687 9.208 239.633 8.988 240.747 8.988V12.156C240.601 12.1413 240.469 12.134 240.351 12.134C240.234 12.1193 240.109 12.112 239.977 12.112C239.039 12.112 238.276 12.3833 237.689 12.926C237.117 13.454 236.831 14.2827 236.831 15.412V21H233.399ZM244.692 25.444C244.076 25.444 243.468 25.3487 242.866 25.158C242.265 24.9673 241.774 24.7033 241.392 24.366L242.646 21.924C242.91 22.1587 243.211 22.342 243.548 22.474C243.9 22.606 244.245 22.672 244.582 22.672C245.066 22.672 245.448 22.5547 245.726 22.32C246.02 22.1 246.284 21.726 246.518 21.198L247.134 19.746L247.398 19.372L251.644 9.164H254.944L249.598 21.726C249.217 22.6793 248.777 23.4273 248.278 23.97C247.794 24.5127 247.252 24.894 246.65 25.114C246.064 25.334 245.411 25.444 244.692 25.444ZM246.716 21.462L241.436 9.164H244.978L249.07 19.064L246.716 21.462Z" fill="url(#paint1_linear_196_72)"/>
<defs>
<linearGradient id="paint0_linear_196_72" x1="4.05375e-06" y1="15.0941" x2="58.5906" y2="9.68228" gradientUnits="userSpaceOnUse">
<stop stop-color="#CD773A"/>
<stop offset="1" stop-color="#F87171"/>
</linearGradient>
<linearGradient id="paint1_linear_196_72" x1="255" y1="14.0248" x2="84.7674" y2="-31.2602" gradientUnits="userSpaceOnUse">
<stop stop-color="#CD773A"/>
<stop offset="1" stop-color="#F87171"/>
</linearGradient>
</defs>
</svg>
