<svg width="99" height="57" viewBox="0 0 99 57" fill="none" xmlns="http://www.w3.org/2000/svg">
<path d="M98.5674 54.8099C97.1329 55.3443 95.5493 55.3431 94.1156 54.8066C92.6818 54.2702 91.497 53.2355 90.7847 51.8978L76.6157 32.6011L74.5622 29.9033L58.122 51.9221C57.4525 53.2036 56.3319 54.2012 54.9699 54.7282C53.6078 55.2552 52.0974 55.2756 50.7212 54.7857L71.9049 26.7971L52.1997 1.5143C53.6166 1.01146 55.1661 1.00479 56.5874 1.49543C58.0087 1.98606 59.2149 2.94402 60.0029 4.20801L74.6895 23.7434L89.4582 4.2889C90.1328 3.03017 91.2537 2.05947 92.6075 1.56134C93.9614 1.06321 95.454 1.07238 96.8014 1.58711L89.1542 11.5813L78.7965 24.8597C78.5088 25.1124 78.2786 25.4221 78.121 25.7685C77.9634 26.115 77.882 26.4903 77.882 26.8699C77.882 27.2495 77.9634 27.6248 78.121 27.9712C78.2786 28.3176 78.5088 28.6273 78.7965 28.88L98.5264 54.814L98.5674 54.8099ZM0.00826322 26.4492L1.73319 18.0567C6.47264 1.46173 25.7918 -5.4424 39.082 4.83087C46.8647 10.8533 48.8073 19.3793 48.4254 28.9892H4.58343C3.87293 46.1505 16.4485 56.5127 32.5273 51.2183C35.1338 50.2943 37.4669 48.7481 39.3176 46.718C41.1682 44.6879 42.4787 42.2374 43.1315 39.5861C43.9816 36.8924 45.3821 36.4313 47.9531 37.2079C47.5247 40.4936 46.3452 43.6409 44.5035 46.413C42.6618 49.1851 40.2058 51.5099 37.3201 53.2123C32.5536 55.7799 27.0848 56.7976 21.6957 56.1199C16.3065 55.4421 11.2729 53.1036 7.31457 49.4387C3.40074 45.1004 1.03532 39.6204 0.579133 33.8347C0.579133 32.8842 0.250575 31.9944 0.0287981 31.141C0.00880546 29.5785 -0.000777685 28.0159 4.92684e-05 26.4533L0.00826322 26.4492ZM4.63682 25.2925H44.2856C44.0391 12.8513 36.0675 4.026 25.4345 3.94511C13.5982 3.78332 5.12966 12.4145 4.60807 25.2359L4.63682 25.2925Z" fill="#FAFBFF"/>
</svg>
