<svg width="674" height="497" viewBox="0 0 674 497" fill="none" xmlns="http://www.w3.org/2000/svg">
<path d="M613.13 381.338C604.381 407.005 592.234 432.366 575.653 456.135C575.286 456.67 574.912 457.194 574.537 457.727L524.82 442.485C525.036 441.971 525.27 441.394 525.521 440.765C540.513 403.65 630.694 177.43 619.996 130.736C621.008 134.568 654.087 261.358 613.13 381.338Z" fill="#E6E6E6"/>
<path d="M585.244 459.075C584.647 459.541 584.033 460 583.412 460.449L546.116 449.014C546.553 448.597 547.062 448.105 547.648 447.549C557.217 438.311 585.641 410.635 613.13 381.338C642.672 349.854 671.142 316.504 674 302.15C673.472 305.423 656.747 405.005 585.244 459.075Z" fill="#E6E6E6"/>
<path d="M589.847 117.693H587.126V43.1451C587.126 31.7023 582.583 20.7282 574.497 12.6369C566.41 4.54563 555.442 0 544.006 0H386.157C374.721 0 363.753 4.54563 355.666 12.6369C347.58 20.7282 343.037 31.7023 343.037 43.1451V452.121C343.037 463.564 347.58 474.538 355.666 482.63C363.753 490.721 374.721 495.267 386.157 495.267H544.005C555.441 495.267 566.409 490.721 574.496 482.63C582.582 474.538 587.125 463.564 587.125 452.121V170.757H589.846L589.847 117.693Z" fill="#3F3D56"/>
<path d="M545.746 11.2236H525.141C526.089 13.5482 526.451 16.0704 526.196 18.568C525.94 21.0656 525.074 23.4619 523.674 25.5458C522.275 27.6297 520.384 29.3371 518.17 30.5177C515.955 31.6983 513.485 32.3158 510.976 32.3157H420.546C418.037 32.3155 415.567 31.698 413.353 30.5174C411.139 29.3369 409.249 27.6296 407.849 25.5461C406.45 23.4625 405.584 21.0666 405.328 18.5693C405.072 16.072 405.434 13.5501 406.381 11.2257H387.134C378.593 11.2257 370.402 14.6204 364.363 20.6631C358.324 26.7058 354.931 34.9014 354.931 43.447V451.821C354.931 460.367 358.324 468.562 364.363 474.605C370.402 480.648 378.593 484.042 387.134 484.042H545.74C554.28 484.042 562.471 480.648 568.51 474.605C574.55 468.562 577.942 460.367 577.942 451.821V43.445C577.942 34.8994 574.55 26.7037 568.51 20.6611C562.471 14.6184 554.28 11.2236 545.74 11.2236L545.746 11.2236Z" fill="white"/>
<path d="M484.167 432.749C485.731 423.103 479.185 414.015 469.545 412.45C459.904 410.884 450.821 417.435 449.257 427.081C447.693 436.726 454.239 445.815 463.88 447.38C473.52 448.945 482.603 442.395 484.167 432.749Z" fill="#E6E6E6"/>
<path d="M564.202 224.886H368.671V263.513H564.202V224.886Z" fill="#E6E6E6"/>
<path d="M372.839 259.343H560.035V229.06H372.839V259.343Z" fill="white"/>
<path d="M389.226 232.411C391.507 232.411 393.737 233.088 395.633 234.356C397.529 235.624 399.007 237.426 399.88 239.534C400.753 241.642 400.981 243.962 400.536 246.2C400.091 248.439 398.993 250.495 397.38 252.108C395.768 253.722 393.713 254.821 391.476 255.266C389.239 255.711 386.92 255.483 384.813 254.609C382.706 253.736 380.905 252.257 379.638 250.36C378.371 248.462 377.695 246.231 377.695 243.949C377.695 242.434 377.993 240.934 378.573 239.534C379.152 238.134 380.001 236.862 381.072 235.791C382.143 234.719 383.414 233.869 384.813 233.289C386.212 232.71 387.712 232.411 389.226 232.411Z" fill="#6C63FF"/>
<path d="M530.611 239.434H416.802V241.942H530.611V239.434Z" fill="#E6E6E6"/>
<path d="M530.611 245.955H416.802V248.463H530.611V245.955Z" fill="#E6E6E6"/>
<path d="M564.202 280.008H368.671V318.635H564.202V280.008Z" fill="#E6E6E6"/>
<path d="M372.839 314.464H560.035V284.181H372.839V314.464Z" fill="white"/>
<path d="M389.226 310.61C395.595 310.61 400.758 305.444 400.758 299.071C400.758 292.699 395.595 287.533 389.226 287.533C382.858 287.533 377.695 292.699 377.695 299.071C377.695 305.444 382.858 310.61 389.226 310.61Z" fill="#6C63FF"/>
<path d="M530.611 294.556H416.802V297.065H530.611V294.556Z" fill="#E6E6E6"/>
<path d="M530.611 301.077H416.802V303.586H530.611V301.077Z" fill="#E6E6E6"/>
<path d="M564.202 335.13H368.671V373.758H564.202V335.13Z" fill="#E6E6E6"/>
<path d="M372.839 369.587H560.035V339.304H372.839V369.587Z" fill="white"/>
<path d="M389.226 365.732C395.595 365.732 400.758 360.566 400.758 354.194C400.758 347.822 395.595 342.656 389.226 342.656C382.858 342.656 377.695 347.822 377.695 354.194C377.695 360.566 382.858 365.732 389.226 365.732Z" fill="#6C63FF"/>
<path d="M530.611 349.679H416.802V352.187H530.611V349.679Z" fill="#E6E6E6"/>
<path d="M530.611 356.2H416.802V358.709H530.611V356.2Z" fill="#E6E6E6"/>
<path d="M466.437 186.408C496.487 186.408 520.847 162.033 520.847 131.966C520.847 101.898 496.487 77.5239 466.437 77.5239C436.387 77.5239 412.026 101.898 412.026 131.966C412.026 162.033 436.387 186.408 466.437 186.408Z" fill="#6C63FF"/>
<path d="M492.962 114.683V149.247C492.962 149.572 492.898 149.893 492.774 150.192C492.65 150.492 492.468 150.764 492.239 150.993C492.01 151.223 491.738 151.405 491.438 151.529C491.139 151.653 490.818 151.716 490.494 151.716H442.379C442.055 151.716 441.734 151.653 441.435 151.529C441.135 151.405 440.863 151.223 440.634 150.993C440.405 150.764 440.223 150.492 440.099 150.192C439.975 149.893 439.911 149.572 439.912 149.247V114.683C439.91 114.401 439.96 114.12 440.06 113.856C440.207 113.434 440.467 113.061 440.812 112.777C441.157 112.493 441.573 112.309 442.015 112.245C442.135 112.225 442.257 112.215 442.379 112.214H490.494C490.616 112.215 490.738 112.225 490.858 112.245C491.3 112.309 491.716 112.493 492.061 112.777C492.406 113.061 492.666 113.434 492.813 113.856C492.913 114.12 492.963 114.401 492.962 114.683Z" fill="white"/>
<path d="M492.813 113.857L467.171 132.953C466.959 133.113 466.702 133.2 466.437 133.2C466.171 133.2 465.914 133.113 465.702 132.953L440.06 113.857C440.207 113.435 440.467 113.062 440.812 112.777C441.157 112.493 441.573 112.309 442.015 112.246L466.437 130.429L490.858 112.246C491.3 112.309 491.716 112.493 492.061 112.777C492.406 113.061 492.666 113.435 492.813 113.857Z" fill="#6C63FF"/>
<path d="M148.644 176.326C148.644 193.209 164.245 190.655 183.491 190.655C202.736 190.655 218.338 193.209 218.338 176.326C218.338 159.444 210.717 129.518 183.491 129.518C155.327 129.518 148.644 159.444 148.644 176.326Z" fill="#2F2E41"/>
<path d="M257.766 484.72L268.907 481.127L260.358 436.423L243.915 441.727L257.766 484.72Z" fill="#A0616A"/>
<path d="M253.753 481.997L275.691 474.921L275.692 474.921C277.528 474.329 279.463 474.104 281.386 474.26C283.308 474.416 285.182 474.95 286.898 475.83C288.615 476.711 290.142 477.921 291.391 479.391C292.641 480.862 293.588 482.565 294.18 484.402L294.326 484.856L258.406 496.441L253.753 481.997Z" fill="#2F2E41"/>
<path d="M121.02 485.089L132.725 485.088L138.293 439.916L121.018 439.916L121.02 485.089Z" fill="#A0616A"/>
<path d="M118.035 481.265L141.085 481.264H141.086C143.015 481.264 144.926 481.644 146.708 482.383C148.49 483.121 150.109 484.204 151.473 485.569C152.838 486.934 153.92 488.554 154.658 490.337C155.396 492.121 155.776 494.032 155.776 495.962V496.44L118.036 496.441L118.035 481.265Z" fill="#2F2E41"/>
<path d="M105.91 310.922C104.984 309.799 104.294 308.5 103.883 307.104C103.471 305.708 103.346 304.243 103.514 302.798C103.682 301.352 104.141 299.955 104.862 298.691C105.584 297.427 106.553 296.322 107.712 295.442C108.137 295.122 108.587 294.835 109.056 294.584L147.236 204.737C147.608 203.657 148.191 202.662 148.95 201.809C149.709 200.956 150.63 200.261 151.658 199.766C152.687 199.271 153.804 198.985 154.944 198.924C156.084 198.863 157.225 199.029 158.3 199.411C159.376 199.794 160.365 200.386 161.211 201.154C162.056 201.921 162.742 202.848 163.227 203.882C163.712 204.916 163.988 206.036 164.039 207.177C164.089 208.318 163.913 209.458 163.52 210.531L124.203 299.925C125.191 302.314 125.289 304.979 124.479 307.435C123.669 309.891 122.004 311.974 119.789 313.305C117.574 314.637 114.954 315.129 112.407 314.692C109.86 314.254 107.554 312.916 105.91 310.922Z" fill="#A0616A"/>
<path d="M247.092 319.936C244.897 318.6 243.254 316.52 242.463 314.075C241.671 311.63 241.783 308.981 242.779 306.612L203.45 217.188C203.062 216.116 202.89 214.979 202.943 213.84C202.996 212.702 203.274 211.585 203.76 210.555C204.246 209.524 204.931 208.6 205.775 207.835C206.62 207.07 207.607 206.479 208.68 206.098C209.753 205.716 210.891 205.55 212.028 205.61C213.166 205.669 214.28 205.953 215.308 206.445C216.335 206.938 217.255 207.628 218.015 208.477C218.774 209.326 219.359 210.317 219.734 211.393L257.926 301.271C258.395 301.522 258.845 301.809 259.27 302.129C260.429 303.009 261.398 304.114 262.119 305.378C262.841 306.642 263.3 308.039 263.468 309.484C263.636 310.93 263.511 312.395 263.099 313.791C262.688 315.187 261.998 316.486 261.072 317.608C260.057 318.839 258.781 319.829 257.338 320.507C255.894 321.186 254.319 321.537 252.724 321.534C250.734 321.537 248.784 320.983 247.092 319.936Z" fill="#A0616A"/>
<path d="M194.855 187.751C206.218 181.536 210.394 167.28 204.183 155.91C197.971 144.54 183.723 140.362 172.36 146.577C160.997 152.792 156.82 167.048 163.032 178.418C169.244 189.788 183.491 193.967 194.855 187.751Z" fill="#A0616A"/>
<path d="M150.583 266.962L145.932 212.908C145.735 210.621 146.052 208.319 146.86 206.17C147.668 204.022 148.946 202.081 150.6 200.49C152.254 198.9 154.244 197.7 156.422 196.978C158.6 196.257 160.911 196.032 163.188 196.32L206.401 201.793C210.358 202.286 213.969 204.3 216.468 207.41C218.966 210.52 220.157 214.481 219.787 218.454C218.071 237.769 213.283 271.677 200.494 281.78L200.299 281.934L150.583 266.962Z" fill="#2F2E41"/>
<path d="M137.965 457.754L120.037 455.628C118.98 455.518 118.002 455.017 117.293 454.224C116.584 453.432 116.196 452.404 116.203 451.34C116.242 442.708 116.22 433.867 116.199 425.318C116.016 352.07 115.843 282.884 150.322 263.793L150.508 263.69L200.657 281.058L202.577 314.675L243.288 372.383C246.654 377.151 249.189 382.456 250.784 388.071L265.91 441.237C266.07 441.797 266.114 442.385 266.039 442.963C265.965 443.541 265.774 444.098 265.478 444.6C265.182 445.101 264.787 445.538 264.317 445.882C263.847 446.227 263.312 446.472 262.744 446.603L245.112 450.674C244.096 450.908 243.03 450.764 242.112 450.27C241.193 449.776 240.486 448.964 240.121 447.987L216.496 389.133L168.489 337.375C168.308 337.187 168.079 337.052 167.826 336.985C167.574 336.918 167.308 336.921 167.057 336.994C166.807 337.067 166.581 337.208 166.404 337.4C166.228 337.593 166.107 337.83 166.055 338.086L142.64 454.331C142.43 455.383 141.834 456.319 140.968 456.953C140.103 457.587 139.031 457.873 137.965 457.754Z" fill="#2F2E41"/>
<path d="M210.7 164.863H201.426L197.334 153.4L196.516 164.863H192.083L189.696 158.176L189.219 164.863H156.281C156.281 161.601 156.924 158.371 158.171 155.358C159.418 152.345 161.247 149.607 163.552 147.3C165.857 144.994 168.593 143.165 171.605 141.916C174.616 140.668 177.844 140.026 181.104 140.026H185.878C189.137 140.026 192.365 140.668 195.377 141.916C198.388 143.165 201.125 144.994 203.43 147.3C205.735 149.607 207.563 152.345 208.811 155.358C210.058 158.371 210.7 161.601 210.7 164.863Z" fill="#2F2E41"/>
<path d="M665.846 497H0.680129C0.499748 497 0.326754 496.928 0.199205 496.8C0.0716557 496.673 0 496.5 0 496.319C0 496.139 0.0716557 495.966 0.199205 495.838C0.326754 495.71 0.499748 495.639 0.680129 495.639H665.846C666.027 495.639 666.2 495.71 666.327 495.838C666.455 495.966 666.527 496.139 666.527 496.319C666.527 496.5 666.455 496.673 666.327 496.8C666.2 496.928 666.027 497 665.846 497Z" fill="#CACACA"/>
</svg>
