<svg width="991" height="1110" viewBox="0 0 991 1110" fill="none" xmlns="http://www.w3.org/2000/svg">
<g filter="url(#filter0_f_92_70)">
<path d="M535.872 936.257L176.919 958.577C161.261 959.551 148.894 945.486 151.863 930.081L255.671 391.488C256.845 385.4 260.329 380.002 265.393 376.426L535.219 185.876C538.36 183.658 541.989 182.227 545.798 181.704L682 163L794.194 150.805C808.287 149.273 820.832 159.753 821.833 173.893L839.68 425.978C839.891 428.966 839.542 431.968 838.649 434.827L707.301 855.428C705.207 862.136 700.277 867.589 693.814 870.348L543.804 934.376C541.287 935.451 538.604 936.087 535.872 936.257Z" fill="#CD773A"/>
<path d="M535.872 936.257L176.919 958.577C161.261 959.551 148.894 945.486 151.863 930.081L255.671 391.488C256.845 385.4 260.329 380.002 265.393 376.426L535.219 185.876C538.36 183.658 541.989 182.227 545.798 181.704L682 163L794.194 150.805C808.287 149.273 820.832 159.753 821.833 173.893L839.68 425.978C839.891 428.966 839.542 431.968 838.649 434.827L707.301 855.428C705.207 862.136 700.277 867.589 693.814 870.348L543.804 934.376C541.287 935.451 538.604 936.087 535.872 936.257Z" stroke="white"/>
</g>
<g clip-path="url(#clip0_92_70)">
<path d="M570.051 380.622C581.99 380.622 591.668 370.95 591.668 359.019C591.668 347.088 581.99 337.416 570.051 337.416C558.113 337.416 548.435 347.088 548.435 359.019C548.435 370.95 558.113 380.622 570.051 380.622Z" fill="#F2F2F2"/>
<path d="M737.738 701.234C769.869 676.776 785.215 635.678 775.608 596.473C775.369 595.499 775.117 594.527 774.852 593.557C768.483 570.285 752.725 548.167 729.758 540.731C710.474 534.488 689.425 539.289 669.307 536.806C629.814 531.932 599.196 499.998 577.652 466.563C556.109 433.127 539.551 395.701 510.925 368.079C463.738 322.548 386.765 312.745 328.26 342.382C269.755 372.019 232.489 437.772 234.078 503.303C235.667 568.834 274.595 631.487 331.127 664.728C351.895 676.939 375.915 685.59 399.819 682.563C420.561 679.936 439.407 668.798 460.052 665.492C492.509 660.293 524.759 674.959 552.832 692.049C580.905 709.139 608.022 729.395 639.923 737.318C670.899 745.011 709.276 722.899 737.738 701.234Z" fill="#F2F2F2"/>
<path d="M691.574 343.758C690.87 343.289 690.158 342.844 689.453 342.391C669.093 329.377 647.27 318.805 624.435 310.893L619.141 383.888H585.575V300.238C583.462 299.801 581.333 299.388 579.204 299V383.888H539.315C517.356 383.888 496.297 375.171 480.769 359.653C465.242 344.135 456.519 323.089 456.519 301.144C454.381 301.605 452.26 302.099 450.139 302.625V383.888H417.65L412.607 314.283C389.14 323.277 366.863 335.105 346.269 349.502C345.913 349.745 345.556 349.996 345.208 350.239C343.419 351.493 341.654 352.771 339.897 354.066V632.542H435.647L433.955 609.119L424.645 480.516H612.138L602.827 609.119L601.135 632.542H695.825V346.574C694.416 345.619 692.999 344.68 691.574 343.758ZM450.139 459.278H423.107L418.112 390.264H450.139V459.278ZM579.204 459.278H533.802V457.911C533.802 457.253 533.672 456.602 533.42 455.995C533.168 455.388 532.799 454.836 532.334 454.372C531.868 453.908 531.316 453.539 530.708 453.289C530.1 453.038 529.448 452.909 528.791 452.91H509.053C508.396 452.91 507.745 453.039 507.138 453.291C506.531 453.542 505.979 453.91 505.514 454.374C505.05 454.839 504.681 455.39 504.43 455.997C504.179 456.604 504.049 457.254 504.05 457.911V459.278H456.519V390.264H579.204V459.278ZM585.575 459.278V390.264H618.679L613.684 459.278H585.575Z" fill="#3F3D56"/>
<path d="M199 650.374C206.033 658.702 213.64 666.529 221.766 673.797L813.234 674.606C821.36 667.338 828.967 659.512 836 651.183L199 650.374Z" fill="#3F3D56"/>
<path d="M600.094 575.373V644.714C600.095 645.598 600.446 646.445 601.072 647.07C601.697 647.695 602.545 648.046 603.429 648.047H706.25C707.134 648.046 707.982 647.695 708.607 647.07C709.233 646.445 709.584 645.598 709.585 644.714V575.373C709.583 574.49 709.231 573.644 708.606 573.02C707.981 572.396 707.134 572.045 706.25 572.044H603.429C602.545 572.045 601.698 572.396 601.073 573.02C600.448 573.644 600.096 574.49 600.094 575.373Z" fill="#3F3D56"/>
<path d="M602.506 576.236V643.859C602.507 644.331 602.695 644.784 603.029 645.118C603.363 645.451 603.816 645.639 604.288 645.64H705.394C705.867 645.639 706.32 645.451 706.654 645.118C706.988 644.784 707.176 644.331 707.176 643.859V576.236C707.176 575.763 706.989 575.31 706.655 574.975C706.321 574.641 705.867 574.452 705.394 574.451H604.288C603.815 574.452 603.362 574.641 603.028 574.975C602.694 575.31 602.506 575.763 602.506 576.236Z" fill="#CD773A"/>
<path d="M597.944 658.238C598.132 658.474 598.371 658.664 598.644 658.794C598.916 658.925 599.215 658.992 599.517 658.99H709.615C709.916 658.99 710.213 658.922 710.485 658.793C710.756 658.663 710.996 658.475 711.185 658.241C711.375 658.007 711.51 657.734 711.581 657.442C711.652 657.149 711.657 656.845 711.595 656.55L709.886 648.437C709.815 648.107 709.662 647.799 709.442 647.542C709.222 647.285 708.941 647.087 708.624 646.967C708.395 646.877 708.151 646.831 707.905 646.831H601.219C600.973 646.831 600.729 646.877 600.5 646.967C600.184 647.087 599.903 647.285 599.683 647.542C599.462 647.799 599.31 648.107 599.239 648.437L597.53 656.55C597.469 656.844 597.475 657.149 597.546 657.441C597.618 657.733 597.754 658.005 597.944 658.238Z" fill="#2F2E41"/>
<path d="M704.128 650.325H706.728C706.947 650.325 707.124 650.149 707.124 649.93V648.687C707.124 648.469 706.947 648.292 706.728 648.292H704.128C703.91 648.292 703.733 648.469 703.733 648.687V649.93C703.733 650.149 703.91 650.325 704.128 650.325Z" fill="#3F3D56"/>
<path d="M697.346 650.325H699.946C700.165 650.325 700.342 650.149 700.342 649.93V648.687C700.342 648.469 700.165 648.292 699.946 648.292H697.346C697.128 648.292 696.951 648.469 696.951 648.687V649.93C696.951 650.149 697.128 650.325 697.346 650.325Z" fill="#3F3D56"/>
<path d="M690.564 650.325H693.164C693.383 650.325 693.56 650.149 693.56 649.93V648.687C693.56 648.469 693.383 648.292 693.164 648.292H690.564C690.346 648.292 690.169 648.469 690.169 648.687V649.93C690.169 650.149 690.346 650.325 690.564 650.325Z" fill="#3F3D56"/>
<path d="M683.782 650.325H686.383C686.601 650.325 686.778 650.149 686.778 649.93V648.687C686.778 648.469 686.601 648.292 686.383 648.292H683.782C683.564 648.292 683.387 648.469 683.387 648.687V649.93C683.387 650.149 683.564 650.325 683.782 650.325Z" fill="#3F3D56"/>
<path d="M677 650.325H679.601C679.819 650.325 679.996 650.149 679.996 649.93V648.687C679.996 648.469 679.819 648.292 679.601 648.292H677C676.782 648.292 676.605 648.469 676.605 648.687V649.93C676.605 650.149 676.782 650.325 677 650.325Z" fill="#3F3D56"/>
<path d="M670.218 650.325H672.819C673.037 650.325 673.214 650.149 673.214 649.93V648.687C673.214 648.469 673.037 648.292 672.819 648.292H670.218C670 648.292 669.823 648.469 669.823 648.687V649.93C669.823 650.149 670 650.325 670.218 650.325Z" fill="#3F3D56"/>
<path d="M663.436 650.325H666.037C666.255 650.325 666.432 650.149 666.432 649.93V648.687C666.432 648.469 666.255 648.292 666.037 648.292H663.436C663.218 648.292 663.041 648.469 663.041 648.687V649.93C663.041 650.149 663.218 650.325 663.436 650.325Z" fill="#3F3D56"/>
<path d="M656.655 650.325H659.255C659.473 650.325 659.65 650.149 659.65 649.93V648.687C659.65 648.469 659.473 648.292 659.255 648.292H656.655C656.436 648.292 656.259 648.469 656.259 648.687V649.93C656.259 650.149 656.436 650.325 656.655 650.325Z" fill="#3F3D56"/>
<path d="M649.873 650.325H652.473C652.691 650.325 652.868 650.149 652.868 649.93V648.687C652.868 648.469 652.691 648.292 652.473 648.292H649.873C649.654 648.292 649.477 648.469 649.477 648.687V649.93C649.477 650.149 649.654 650.325 649.873 650.325Z" fill="#3F3D56"/>
<path d="M643.091 650.325H645.691C645.909 650.325 646.086 650.149 646.086 649.93V648.687C646.086 648.469 645.909 648.292 645.691 648.292H643.091C642.872 648.292 642.695 648.469 642.695 648.687V649.93C642.695 650.149 642.872 650.325 643.091 650.325Z" fill="#3F3D56"/>
<path d="M636.309 650.325H638.909C639.128 650.325 639.304 650.149 639.304 649.93V648.687C639.304 648.469 639.128 648.292 638.909 648.292H636.309C636.09 648.292 635.914 648.469 635.914 648.687V649.93C635.914 650.149 636.09 650.325 636.309 650.325Z" fill="#3F3D56"/>
<path d="M629.527 650.325H632.127C632.346 650.325 632.523 650.149 632.523 649.93V648.687C632.523 648.469 632.346 648.292 632.127 648.292H629.527C629.309 648.292 629.132 648.469 629.132 648.687V649.93C629.132 650.149 629.309 650.325 629.527 650.325Z" fill="#3F3D56"/>
<path d="M622.745 650.325H625.345C625.564 650.325 625.741 650.149 625.741 649.93V648.687C625.741 648.469 625.564 648.292 625.345 648.292H622.745C622.527 648.292 622.35 648.469 622.35 648.687V649.93C622.35 650.149 622.527 650.325 622.745 650.325Z" fill="#3F3D56"/>
<path d="M615.963 650.325H618.563C618.782 650.325 618.959 650.149 618.959 649.93V648.687C618.959 648.469 618.782 648.292 618.563 648.292H615.963C615.745 648.292 615.568 648.469 615.568 648.687V649.93C615.568 650.149 615.745 650.325 615.963 650.325Z" fill="#3F3D56"/>
<path d="M609.181 650.325H611.782C612 650.325 612.177 650.149 612.177 649.93V648.687C612.177 648.469 612 648.292 611.782 648.292H609.181C608.963 648.292 608.786 648.469 608.786 648.687V649.93C608.786 650.149 608.963 650.325 609.181 650.325Z" fill="#3F3D56"/>
<path d="M602.399 650.325H605C605.218 650.325 605.395 650.149 605.395 649.93V648.687C605.395 648.469 605.218 648.292 605 648.292H602.399C602.181 648.292 602.004 648.469 602.004 648.687V649.93C602.004 650.149 602.181 650.325 602.399 650.325Z" fill="#3F3D56"/>
<path d="M704.208 653.714H706.808C707.027 653.714 707.204 653.537 707.204 653.319V652.076C707.204 651.858 707.027 651.681 706.808 651.681H704.208C703.99 651.681 703.813 651.858 703.813 652.076V653.319C703.813 653.537 703.99 653.714 704.208 653.714Z" fill="#3F3D56"/>
<path d="M697.426 653.714H700.027C700.245 653.714 700.422 653.537 700.422 653.319V652.076C700.422 651.858 700.245 651.681 700.027 651.681H697.426C697.208 651.681 697.031 651.858 697.031 652.076V653.319C697.031 653.537 697.208 653.714 697.426 653.714Z" fill="#3F3D56"/>
<path d="M690.644 653.714H693.245C693.463 653.714 693.64 653.537 693.64 653.319V652.076C693.64 651.858 693.463 651.681 693.245 651.681H690.644C690.426 651.681 690.249 651.858 690.249 652.076V653.319C690.249 653.537 690.426 653.714 690.644 653.714Z" fill="#3F3D56"/>
<path d="M683.862 653.714H686.463C686.681 653.714 686.858 653.537 686.858 653.319V652.076C686.858 651.858 686.681 651.681 686.463 651.681H683.862C683.644 651.681 683.467 651.858 683.467 652.076V653.319C683.467 653.537 683.644 653.714 683.862 653.714Z" fill="#3F3D56"/>
<path d="M677.08 653.714H679.681C679.899 653.714 680.076 653.537 680.076 653.319V652.076C680.076 651.858 679.899 651.681 679.681 651.681H677.08C676.862 651.681 676.685 651.858 676.685 652.076V653.319C676.685 653.537 676.862 653.714 677.08 653.714Z" fill="#3F3D56"/>
<path d="M670.298 653.714H672.899C673.117 653.714 673.294 653.537 673.294 653.319V652.076C673.294 651.858 673.117 651.681 672.899 651.681H670.298C670.08 651.681 669.903 651.858 669.903 652.076V653.319C669.903 653.537 670.08 653.714 670.298 653.714Z" fill="#3F3D56"/>
<path d="M663.516 653.714H666.117C666.335 653.714 666.512 653.537 666.512 653.319V652.076C666.512 651.858 666.335 651.681 666.117 651.681H663.516C663.298 651.681 663.121 651.858 663.121 652.076V653.319C663.121 653.537 663.298 653.714 663.516 653.714Z" fill="#3F3D56"/>
<path d="M656.735 653.714H659.335C659.553 653.714 659.73 653.537 659.73 653.319V652.076C659.73 651.858 659.553 651.681 659.335 651.681H656.735C656.516 651.681 656.339 651.858 656.339 652.076V653.319C656.339 653.537 656.516 653.714 656.735 653.714Z" fill="#3F3D56"/>
<path d="M649.953 653.714H652.553C652.772 653.714 652.948 653.537 652.948 653.319V652.076C652.948 651.858 652.772 651.681 652.553 651.681H649.953C649.735 651.681 649.558 651.858 649.558 652.076V653.319C649.558 653.537 649.735 653.714 649.953 653.714Z" fill="#3F3D56"/>
<path d="M643.171 653.714H645.771C645.99 653.714 646.167 653.537 646.167 653.319V652.076C646.167 651.858 645.99 651.681 645.771 651.681H643.171C642.953 651.681 642.776 651.858 642.776 652.076V653.319C642.776 653.537 642.953 653.714 643.171 653.714Z" fill="#3F3D56"/>
<path d="M636.389 653.714H638.989C639.208 653.714 639.385 653.537 639.385 653.319V652.076C639.385 651.858 639.208 651.681 638.989 651.681H636.389C636.171 651.681 635.994 651.858 635.994 652.076V653.319C635.994 653.537 636.171 653.714 636.389 653.714Z" fill="#3F3D56"/>
<path d="M629.607 653.714H632.208C632.426 653.714 632.603 653.537 632.603 653.319V652.076C632.603 651.858 632.426 651.681 632.208 651.681H629.607C629.389 651.681 629.212 651.858 629.212 652.076V653.319C629.212 653.537 629.389 653.714 629.607 653.714Z" fill="#3F3D56"/>
<path d="M622.825 653.714H625.426C625.644 653.714 625.821 653.537 625.821 653.319V652.076C625.821 651.858 625.644 651.681 625.426 651.681H622.825C622.607 651.681 622.43 651.858 622.43 652.076V653.319C622.43 653.537 622.607 653.714 622.825 653.714Z" fill="#3F3D56"/>
<path d="M616.043 653.714H618.644C618.862 653.714 619.039 653.537 619.039 653.319V652.076C619.039 651.858 618.862 651.681 618.644 651.681H616.043C615.825 651.681 615.648 651.858 615.648 652.076V653.319C615.648 653.537 615.825 653.714 616.043 653.714Z" fill="#3F3D56"/>
<path d="M609.261 653.714H611.862C612.08 653.714 612.257 653.537 612.257 653.319V652.076C612.257 651.858 612.08 651.681 611.862 651.681H609.261C609.043 651.681 608.866 651.858 608.866 652.076V653.319C608.866 653.537 609.043 653.714 609.261 653.714Z" fill="#3F3D56"/>
<path d="M602.479 653.714H605.08C605.298 653.714 605.475 653.537 605.475 653.319V652.076C605.475 651.858 605.298 651.681 605.08 651.681H602.479C602.261 651.681 602.084 651.858 602.084 652.076V653.319C602.084 653.537 602.261 653.714 602.479 653.714Z" fill="#3F3D56"/>
<path d="M647.918 657.781H674.255C674.474 657.781 674.651 657.604 674.651 657.386V656.142C674.651 655.924 674.474 655.747 674.255 655.747H647.918C647.7 655.747 647.523 655.924 647.523 656.142V657.386C647.523 657.604 647.7 657.781 647.918 657.781Z" fill="#3F3D56"/>
<path d="M620.015 589.246H617.713C617.015 589.246 616.449 589.811 616.449 590.509C616.449 591.206 617.015 591.772 617.713 591.772H620.015C620.713 591.772 621.279 591.206 621.279 590.509C621.279 589.811 620.713 589.246 620.015 589.246Z" fill="white"/>
<path d="M646.345 589.246H644.043C643.345 589.246 642.779 589.811 642.779 590.509C642.779 591.206 643.345 591.772 644.043 591.772H646.345C647.043 591.772 647.609 591.206 647.609 590.509C647.609 589.811 647.043 589.246 646.345 589.246Z" fill="white"/>
<path d="M653.805 589.246H651.503C650.805 589.246 650.239 589.811 650.239 590.509C650.239 591.206 650.805 591.772 651.503 591.772H653.805C654.503 591.772 655.069 591.206 655.069 590.509C655.069 589.811 654.503 589.246 653.805 589.246Z" fill="white"/>
<path d="M639.183 589.035H624.874C624.176 589.035 623.611 589.6 623.611 590.298C623.611 590.996 624.176 591.561 624.874 591.561H639.183C639.881 591.561 640.447 590.996 640.447 590.298C640.447 589.6 639.881 589.035 639.183 589.035Z" fill="white"/>
<path d="M674.29 589.035H659.981C659.284 589.035 658.718 589.6 658.718 590.298C658.718 590.996 659.284 591.561 659.981 591.561H674.29C674.988 591.561 675.554 590.996 675.554 590.298C675.554 589.6 674.988 589.035 674.29 589.035Z" fill="white"/>
<path d="M627.036 594.947H624.734C624.036 594.947 623.47 595.512 623.47 596.21C623.47 596.907 624.036 597.473 624.734 597.473H627.036C627.734 597.473 628.3 596.907 628.3 596.21C628.3 595.512 627.734 594.947 627.036 594.947Z" fill="white"/>
<path d="M653.366 594.947H651.064C650.366 594.947 649.8 595.512 649.8 596.21C649.8 596.907 650.366 597.473 651.064 597.473H653.366C654.064 597.473 654.63 596.907 654.63 596.21C654.63 595.512 654.064 594.947 653.366 594.947Z" fill="white"/>
<path d="M660.827 594.947H658.524C657.826 594.947 657.261 595.512 657.261 596.21C657.261 596.907 657.826 597.473 658.524 597.473H660.827C661.525 597.473 662.09 596.907 662.09 596.21C662.09 595.512 661.525 594.947 660.827 594.947Z" fill="white"/>
<path d="M646.205 594.736H631.896C631.198 594.736 630.632 595.302 630.632 595.999C630.632 596.697 631.198 597.262 631.896 597.262H646.205C646.903 597.262 647.468 596.697 647.468 595.999C647.468 595.302 646.903 594.736 646.205 594.736Z" fill="white"/>
<path d="M681.311 594.736H667.003C666.305 594.736 665.739 595.302 665.739 595.999C665.739 596.697 666.305 597.262 667.003 597.262H681.311C682.009 597.262 682.575 596.697 682.575 595.999C682.575 595.302 682.009 594.736 681.311 594.736Z" fill="white"/>
<path d="M634.058 600.648H631.755C631.057 600.648 630.492 601.214 630.492 601.911C630.492 602.609 631.057 603.174 631.755 603.174H634.058C634.756 603.174 635.321 602.609 635.321 601.911C635.321 601.214 634.756 600.648 634.058 600.648Z" fill="white"/>
<path d="M660.388 600.648H658.086C657.388 600.648 656.822 601.214 656.822 601.911C656.822 602.609 657.388 603.174 658.086 603.174H660.388C661.086 603.174 661.652 602.609 661.652 601.911C661.652 601.214 661.086 600.648 660.388 600.648Z" fill="white"/>
<path d="M667.848 600.648H665.546C664.848 600.648 664.282 601.214 664.282 601.911C664.282 602.609 664.848 603.174 665.546 603.174H667.848C668.546 603.174 669.112 602.609 669.112 601.911C669.112 601.214 668.546 600.648 667.848 600.648Z" fill="white"/>
<path d="M653.226 600.438H638.917C638.219 600.438 637.653 601.003 637.653 601.701C637.653 602.398 638.219 602.964 638.917 602.964H653.226C653.924 602.964 654.49 602.398 654.49 601.701C654.49 601.003 653.924 600.438 653.226 600.438Z" fill="white"/>
<path d="M688.333 600.438H674.024C673.326 600.438 672.76 601.003 672.76 601.701C672.76 602.398 673.326 602.964 674.024 602.964H688.333C689.031 602.964 689.597 602.398 689.597 601.701C689.597 601.003 689.031 600.438 688.333 600.438Z" fill="white"/>
<path d="M641.079 606.349H638.777C638.079 606.349 637.513 606.915 637.513 607.612C637.513 608.31 638.079 608.875 638.777 608.875H641.079C641.777 608.875 642.343 608.31 642.343 607.612C642.343 606.915 641.777 606.349 641.079 606.349Z" fill="white"/>
<path d="M667.409 606.349H665.107C664.409 606.349 663.843 606.915 663.843 607.612C663.843 608.31 664.409 608.875 665.107 608.875H667.409C668.107 608.875 668.673 608.31 668.673 607.612C668.673 606.915 668.107 606.349 667.409 606.349Z" fill="white"/>
<path d="M674.87 606.349H672.567C671.869 606.349 671.303 606.915 671.303 607.612C671.303 608.31 671.869 608.875 672.567 608.875H674.87C675.568 608.875 676.133 608.31 676.133 607.612C676.133 606.915 675.568 606.349 674.87 606.349Z" fill="white"/>
<path d="M660.247 606.139H645.939C645.241 606.139 644.675 606.704 644.675 607.402C644.675 608.099 645.241 608.665 645.939 608.665H660.247C660.945 608.665 661.511 608.099 661.511 607.402C661.511 606.704 660.945 606.139 660.247 606.139Z" fill="white"/>
<path d="M646.345 629.02H644.043C643.345 629.02 642.779 629.586 642.779 630.283C642.779 630.981 643.345 631.546 644.043 631.546H646.345C647.043 631.546 647.609 630.981 647.609 630.283C647.609 629.586 647.043 629.02 646.345 629.02Z" fill="white"/>
<path d="M653.805 629.02H651.503C650.805 629.02 650.239 629.586 650.239 630.283C650.239 630.981 650.805 631.546 651.503 631.546H653.805C654.503 631.546 655.069 630.981 655.069 630.283C655.069 629.586 654.503 629.02 653.805 629.02Z" fill="white"/>
<path d="M674.29 629.231H659.981C659.284 629.231 658.718 629.796 658.718 630.494C658.718 631.191 659.284 631.757 659.981 631.757H674.29C674.988 631.757 675.554 631.191 675.554 630.494C675.554 629.796 674.988 629.231 674.29 629.231Z" fill="white"/>
<path d="M620.015 629.02H617.713C617.015 629.02 616.449 629.586 616.449 630.283C616.449 630.981 617.015 631.546 617.713 631.546H620.015C620.713 631.546 621.279 630.981 621.279 630.283C621.279 629.586 620.713 629.02 620.015 629.02Z" fill="white"/>
<path d="M639.183 629.231H624.874C624.176 629.231 623.611 629.796 623.611 630.494C623.611 631.191 624.176 631.757 624.874 631.757H639.183C639.881 631.757 640.447 631.191 640.447 630.494C640.447 629.796 639.881 629.231 639.183 629.231Z" fill="white"/>
<path d="M627.036 623.319H624.734C624.036 623.319 623.47 623.884 623.47 624.582C623.47 625.279 624.036 625.845 624.734 625.845H627.036C627.734 625.845 628.3 625.279 628.3 624.582C628.3 623.884 627.734 623.319 627.036 623.319Z" fill="white"/>
<path d="M653.366 623.319H651.064C650.366 623.319 649.8 623.884 649.8 624.582C649.8 625.279 650.366 625.845 651.064 625.845H653.366C654.064 625.845 654.63 625.279 654.63 624.582C654.63 623.884 654.064 623.319 653.366 623.319Z" fill="white"/>
<path d="M660.827 623.319H658.524C657.826 623.319 657.261 623.884 657.261 624.582C657.261 625.279 657.826 625.845 658.524 625.845H660.827C661.525 625.845 662.09 625.279 662.09 624.582C662.09 623.884 661.525 623.319 660.827 623.319Z" fill="white"/>
<path d="M646.205 623.529H631.896C631.198 623.529 630.632 624.095 630.632 624.792C630.632 625.49 631.198 626.055 631.896 626.055H646.205C646.903 626.055 647.468 625.49 647.468 624.792C647.468 624.095 646.903 623.529 646.205 623.529Z" fill="white"/>
<path d="M634.058 617.618H631.755C631.057 617.618 630.492 618.183 630.492 618.881C630.492 619.578 631.057 620.144 631.755 620.144H634.058C634.756 620.144 635.321 619.578 635.321 618.881C635.321 618.183 634.756 617.618 634.058 617.618Z" fill="white"/>
<path d="M660.388 617.618H658.086C657.388 617.618 656.822 618.183 656.822 618.881C656.822 619.578 657.388 620.144 658.086 620.144H660.388C661.086 620.144 661.652 619.578 661.652 618.881C661.652 618.183 661.086 617.618 660.388 617.618Z" fill="white"/>
<path d="M667.848 617.618H665.546C664.848 617.618 664.282 618.183 664.282 618.881C664.282 619.578 664.848 620.144 665.546 620.144H667.848C668.546 620.144 669.112 619.578 669.112 618.881C669.112 618.183 668.546 617.618 667.848 617.618Z" fill="white"/>
<path d="M653.226 617.828H638.917C638.219 617.828 637.653 618.394 637.653 619.091C637.653 619.789 638.219 620.354 638.917 620.354H653.226C653.924 620.354 654.49 619.789 654.49 619.091C654.49 618.394 653.924 617.828 653.226 617.828Z" fill="white"/>
<path d="M641.079 611.916H638.777C638.079 611.916 637.513 612.482 637.513 613.179C637.513 613.877 638.079 614.442 638.777 614.442H641.079C641.777 614.442 642.343 613.877 642.343 613.179C642.343 612.482 641.777 611.916 641.079 611.916Z" fill="white"/>
<path d="M667.409 611.916H665.107C664.409 611.916 663.843 612.482 663.843 613.179C663.843 613.877 664.409 614.442 665.107 614.442H667.409C668.107 614.442 668.673 613.877 668.673 613.179C668.673 612.482 668.107 611.916 667.409 611.916Z" fill="white"/>
<path d="M674.87 611.916H672.567C671.869 611.916 671.303 612.482 671.303 613.179C671.303 613.877 671.869 614.442 672.567 614.442H674.87C675.568 614.442 676.133 613.877 676.133 613.179C676.133 612.482 675.568 611.916 674.87 611.916Z" fill="white"/>
<path d="M660.247 612.127H645.939C645.241 612.127 644.675 612.692 644.675 613.39C644.675 614.087 645.241 614.653 645.939 614.653H660.247C660.945 614.653 661.511 614.087 661.511 613.39C661.511 612.692 660.945 612.127 660.247 612.127Z" fill="white"/>
<path d="M607.775 695.837L596.967 678.764L630.891 651.739L644.893 636.236C646.712 634.222 649.028 632.72 651.61 631.881C654.192 631.042 656.949 630.894 659.605 631.453C662.262 632.013 664.725 633.259 666.749 635.067C668.773 636.876 670.286 639.184 671.138 641.76C672.4 645.578 672.129 649.736 670.381 653.358C668.633 656.979 665.546 659.781 661.771 661.171L639.63 669.322L607.775 695.837Z" fill="#FFB6B6"/>
<path d="M354.19 572.048V655.026H412.359V572.048C412.36 571.451 412.169 570.869 411.815 570.389C411.461 569.908 410.962 569.554 410.392 569.378C410.123 569.289 409.841 569.245 409.558 569.248H356.999C356.631 569.248 356.266 569.319 355.925 569.46C355.585 569.6 355.275 569.806 355.014 570.066C354.753 570.326 354.546 570.635 354.405 570.975C354.263 571.315 354.19 571.679 354.19 572.048ZM376.891 600.559C376.906 598.924 377.567 597.36 378.73 596.208C379.893 595.057 381.463 594.411 383.1 594.411C384.737 594.411 386.308 595.057 387.471 596.208C388.634 597.36 389.295 598.924 389.31 600.559V610.187C389.301 611.828 388.644 613.398 387.48 614.555C386.316 615.712 384.742 616.361 383.1 616.361C381.459 616.361 379.884 615.712 378.721 614.555C377.557 613.398 376.899 611.828 376.891 610.187V600.559Z" fill="#2F2E41"/>
<path d="M354.012 652.373V660.374C354.013 660.789 354.178 661.186 354.47 661.48C354.763 661.774 355.16 661.941 355.574 661.944H410.974C411.39 661.942 411.787 661.776 412.08 661.482C412.373 661.187 412.537 660.789 412.537 660.374V652.373H354.012Z" fill="#3F3D56"/>
<path d="M262.682 447.029V598.537C262.684 600.468 263.452 602.319 264.818 603.684C266.184 605.049 268.036 605.817 269.968 605.818H494.629C496.561 605.817 498.413 605.049 499.78 603.684C501.146 602.319 501.914 600.468 501.915 598.537V447.029C501.911 445.1 501.141 443.252 499.776 441.888C498.41 440.525 496.559 439.758 494.629 439.756H269.968C268.038 439.758 266.187 440.525 264.822 441.888C263.456 443.252 262.687 445.1 262.682 447.029Z" fill="#3F3D56"/>
<path d="M267.953 448.914V596.668C267.954 597.699 268.365 598.688 269.095 599.418C269.825 600.147 270.815 600.558 271.847 600.559H492.759C493.791 600.558 494.781 600.147 495.511 599.418C496.241 598.688 496.651 597.699 496.653 596.668V448.914C496.653 447.881 496.243 446.891 495.513 446.16C494.783 445.429 493.793 445.017 492.759 445.015H271.847C270.813 445.017 269.823 445.429 269.093 446.16C268.363 446.891 267.953 447.881 267.953 448.914Z" fill="white"/>
<path d="M308.95 661.402C309.175 661.684 309.461 661.911 309.786 662.066C310.111 662.222 310.468 662.302 310.828 662.3H442.257C442.616 662.3 442.971 662.219 443.296 662.064C443.62 661.91 443.906 661.685 444.132 661.406C444.359 661.127 444.52 660.801 444.604 660.452C444.689 660.103 444.695 659.739 444.621 659.387L442.581 649.703C442.496 649.308 442.314 648.94 442.051 648.634C441.788 648.327 441.453 648.091 441.075 647.947C440.802 647.84 440.51 647.785 440.217 647.785H312.86C312.567 647.785 312.276 647.84 312.002 647.947C311.625 648.091 311.289 648.327 311.026 648.634C310.763 648.94 310.581 649.308 310.496 649.703L308.456 659.387C308.384 659.739 308.39 660.102 308.476 660.45C308.561 660.799 308.723 661.124 308.95 661.402Z" fill="#2F2E41"/>
<path d="M485.59 465.368H278.883C278.668 465.364 278.464 465.275 278.313 465.121C278.163 464.968 278.079 464.762 278.079 464.547C278.079 464.332 278.163 464.126 278.313 463.972C278.464 463.819 278.668 463.73 278.883 463.725H485.59C485.805 463.73 486.009 463.819 486.159 463.972C486.309 464.126 486.394 464.332 486.394 464.547C486.394 464.762 486.309 464.968 486.159 465.121C486.009 465.275 485.805 465.364 485.59 465.368Z" fill="#3F3D56"/>
<path d="M292.954 459.531C295.614 459.531 297.771 457.327 297.771 454.609C297.771 451.891 295.614 449.688 292.954 449.688C290.293 449.688 288.136 451.891 288.136 454.609C288.136 457.327 290.293 459.531 292.954 459.531Z" fill="#3F3D56"/>
<path d="M309.596 459.531C312.256 459.531 314.413 457.327 314.413 454.609C314.413 451.891 312.256 449.688 309.596 449.688C306.935 449.688 304.778 451.891 304.778 454.609C304.778 457.327 306.935 459.531 309.596 459.531Z" fill="#3F3D56"/>
<path d="M326.238 459.531C328.898 459.531 331.055 457.327 331.055 454.609C331.055 451.891 328.898 449.688 326.238 449.688C323.577 449.688 321.42 451.891 321.42 454.609C321.42 457.327 323.577 459.531 326.238 459.531Z" fill="#3F3D56"/>
<path d="M475.568 450.905H463.749C463.515 450.91 463.293 451.007 463.129 451.174C462.966 451.341 462.875 451.565 462.875 451.799C462.875 452.032 462.966 452.257 463.129 452.424C463.293 452.591 463.515 452.687 463.749 452.693H475.568C475.804 452.689 476.028 452.594 476.193 452.427C476.358 452.259 476.451 452.034 476.451 451.799C476.451 451.564 476.358 451.338 476.193 451.171C476.028 451.004 475.804 450.908 475.568 450.905Z" fill="#3F3D56"/>
<path d="M475.569 454.262H463.749C463.515 454.268 463.292 454.364 463.129 454.531C462.965 454.698 462.874 454.923 462.874 455.156C462.874 455.39 462.965 455.615 463.129 455.782C463.292 455.949 463.515 456.045 463.749 456.05H475.569C475.804 456.048 476.029 455.952 476.194 455.785C476.36 455.617 476.452 455.392 476.452 455.156C476.452 454.921 476.36 454.695 476.194 454.528C476.029 454.361 475.804 454.265 475.569 454.262Z" fill="#3F3D56"/>
<path d="M475.568 457.62H463.749C463.515 457.625 463.293 457.722 463.129 457.889C462.966 458.056 462.875 458.28 462.875 458.514C462.875 458.748 462.966 458.972 463.129 459.139C463.293 459.306 463.515 459.403 463.749 459.408H475.568C475.804 459.405 476.028 459.309 476.193 459.142C476.358 458.974 476.451 458.749 476.451 458.514C476.451 458.279 476.358 458.054 476.193 457.886C476.028 457.719 475.804 457.623 475.568 457.62Z" fill="#3F3D56"/>
<path d="M760.527 655.884C760.883 656.922 761.56 657.82 762.459 658.45C763.359 659.08 764.435 659.408 765.533 659.389L786.98 658.837C788.086 658.815 789.155 658.437 790.028 657.758C790.901 657.078 791.53 656.135 791.822 655.069L794.857 622.635C795.934 623.123 797.106 623.364 798.288 623.34C799.315 623.314 800.327 623.087 801.265 622.67C802.204 622.254 803.052 621.656 803.76 620.913C804.468 620.169 805.022 619.293 805.391 618.335C805.76 617.377 805.937 616.356 805.911 615.33C805.885 614.303 805.658 613.292 805.241 612.354C804.824 611.416 804.226 610.569 803.482 609.861C802.738 609.154 801.861 608.6 800.903 608.231C799.944 607.862 798.922 607.686 797.896 607.711C797.423 607.71 796.952 607.759 796.49 607.858C795.988 607.314 795.377 606.882 794.697 606.589C794.018 606.296 793.284 606.149 792.544 606.156L759.553 607.007C759.279 607.018 759.007 607.051 758.739 607.108C758.016 607.243 757.329 607.531 756.727 607.953C756.124 608.375 755.619 608.922 755.245 609.555C754.871 610.189 754.637 610.895 754.56 611.626C754.482 612.358 754.562 613.097 754.794 613.795L760.527 655.884ZM795.48 620.433L797.639 612.704C797.885 611.812 797.891 610.87 797.656 609.974C797.76 609.974 797.853 609.924 797.958 609.924C799.439 609.893 800.871 610.451 801.941 611.474C803.011 612.498 803.632 613.903 803.667 615.383C803.701 616.863 803.147 618.296 802.126 619.368C801.105 620.44 799.7 621.064 798.22 621.103C797.262 621.133 796.315 620.901 795.48 620.433Z" fill="#2F2E41"/>
<path d="M758.739 607.108C759.442 611.125 767.344 613.948 776.846 613.457C785.584 613.055 792.728 609.989 794.037 606.355C793.553 606.212 793.049 606.145 792.544 606.156L759.553 607.007C759.279 607.017 759.007 607.051 758.739 607.108Z" fill="#3F3D56"/>
<path d="M778.588 638.062C778.631 638.051 778.672 638.033 778.71 638.008L783.367 634.961C783.424 634.925 783.47 634.875 783.502 634.816C783.534 634.757 783.551 634.69 783.551 634.623C783.551 634.556 783.534 634.49 783.502 634.431C783.47 634.372 783.424 634.322 783.368 634.285L778.527 631.116C778.482 631.087 778.432 631.066 778.38 631.056C778.328 631.046 778.274 631.046 778.222 631.057C778.17 631.068 778.12 631.089 778.076 631.119C778.032 631.149 777.994 631.187 777.965 631.232C777.936 631.276 777.916 631.326 777.906 631.378C777.896 631.431 777.896 631.484 777.907 631.536C777.918 631.589 777.939 631.638 777.97 631.682C778 631.726 778.038 631.763 778.083 631.792L782.407 634.623L778.267 637.331C778.186 637.384 778.127 637.463 778.1 637.555C778.073 637.646 778.079 637.745 778.118 637.832C778.156 637.92 778.224 637.991 778.31 638.033C778.397 638.075 778.495 638.085 778.588 638.062Z" fill="#CD773A"/>
<path d="M771.231 638.401C771.309 638.381 771.38 638.339 771.433 638.278C771.487 638.218 771.522 638.144 771.533 638.064C771.544 637.984 771.531 637.903 771.495 637.83C771.459 637.758 771.403 637.698 771.333 637.658L767.04 635.198L771.19 632.118C771.232 632.086 771.268 632.046 771.295 632.001C771.323 631.955 771.341 631.905 771.348 631.852C771.356 631.8 771.353 631.746 771.341 631.695C771.328 631.643 771.305 631.595 771.273 631.552C771.241 631.509 771.201 631.474 771.156 631.446C771.11 631.419 771.06 631.401 771.007 631.393C770.955 631.386 770.901 631.388 770.85 631.401C770.798 631.414 770.75 631.437 770.707 631.469L766.061 634.918C766.007 634.958 765.964 635.01 765.936 635.071C765.907 635.132 765.894 635.199 765.898 635.266C765.902 635.333 765.923 635.398 765.958 635.455C765.994 635.512 766.043 635.56 766.101 635.593L770.93 638.36C771.021 638.412 771.129 638.427 771.231 638.401Z" fill="#CD773A"/>
<path d="M778.124 640.732C778.164 640.722 778.201 640.706 778.235 640.685C778.281 640.657 778.32 640.621 778.352 640.578C778.383 640.535 778.406 640.487 778.418 640.435C778.431 640.384 778.433 640.33 778.425 640.277C778.417 640.225 778.399 640.174 778.371 640.129L771.768 629.281C771.712 629.189 771.622 629.124 771.518 629.098C771.414 629.073 771.304 629.091 771.212 629.146C771.12 629.202 771.055 629.292 771.029 629.396C771.004 629.5 771.021 629.61 771.077 629.702L777.679 640.55C777.724 640.624 777.792 640.682 777.872 640.714C777.952 640.747 778.041 640.753 778.124 640.732Z" fill="#CD773A"/>
<path d="M406.934 510.029H371.158C369.698 510.029 368.515 511.211 368.515 512.67V516.163C368.515 517.622 369.698 518.804 371.158 518.804H406.934C408.394 518.804 409.577 517.622 409.577 516.163V512.67C409.577 511.211 408.394 510.029 406.934 510.029Z" fill="#CD773A"/>
<path d="M427.788 527.579H350.304C348.845 527.579 347.661 528.761 347.661 530.22V533.713C347.661 535.172 348.845 536.354 350.304 536.354H427.788C429.247 536.354 430.431 535.172 430.431 533.713V530.22C430.431 528.761 429.247 527.579 427.788 527.579Z" fill="#E6E6E6"/>
<path d="M427.788 545.129H350.304C348.845 545.129 347.661 546.311 347.661 547.77V551.263C347.661 552.722 348.845 553.904 350.304 553.904H427.788C429.247 553.904 430.431 552.722 430.431 551.263V547.77C430.431 546.311 429.247 545.129 427.788 545.129Z" fill="#E6E6E6"/>
<path d="M434.356 603.897L434.532 604.451L434.541 604.469L439.824 620.52L445.901 639.016L457.334 673.775L457.445 679.174V679.193L458.295 722.627L455.94 728.516L458.59 738.17C458.59 738.17 457.371 723.577 450.832 731.957C447.129 736.72 442.798 741.593 439.242 746.162C444.423 748.257 449.687 750.152 455.035 751.847C456.189 752.217 457.353 752.567 458.516 752.918C458.766 752.992 459.015 753.066 459.265 753.14C476.99 758.378 495.315 761.322 513.791 761.899C514.751 761.926 515.694 761.945 516.608 761.963C516.931 761.972 517.245 761.982 517.559 761.982C518.593 761.991 519.619 762 520.653 762C522.74 762 524.818 761.969 526.887 761.908C542.199 761.476 557.421 759.419 572.298 755.77C572.196 749.632 571.919 742.461 571.522 734.8C571.337 731.044 567.191 726.973 566.941 723.042C566.766 720.088 570.488 717.31 570.294 714.31C569.038 695.842 567.468 702.931 566.304 689.853C566.184 688.57 566.073 687.342 565.972 686.17C565.224 677.771 564.706 672.52 564.706 672.52L569.675 641.222L577.479 592.083L576.879 591.095L576.205 590.763L535.042 570.403L532.807 564.68C532.156 563.031 531.026 561.615 529.563 560.614C528.1 559.612 526.37 559.071 524.597 559.059L497.481 558.948C496.074 558.942 494.685 559.271 493.431 559.908C492.177 560.546 491.092 561.473 490.268 562.613L482.926 572.774L434.356 603.897Z" fill="#3F3D56"/>
<path d="M463.587 666.04L457.445 679.174L453.252 688.145L446.039 725.886L442.428 729.716L439.334 716.156L406.953 723.342C405.891 717.444 406.668 723.541 406.013 717.071C406.197 716.887 406.391 716.702 406.585 716.517C407.102 716.037 407.536 715.585 407.527 715.151C407.158 692.834 408.266 654.854 417.52 631.844C418.969 628.087 420.88 624.525 423.209 621.239C423.394 620.99 423.569 620.741 423.745 620.492C428.012 614.52 430.708 608.641 434.532 604.46V604.451C434.556 604.432 434.577 604.41 434.597 604.386C434.61 604.379 434.623 604.37 434.633 604.358L460.899 590.44L462.026 622.079L462.829 644.821L463.587 666.04Z" fill="#3F3D56"/>
<path d="M558.296 669.771L565.968 686.175L568.646 691.887L575.856 729.624L579.456 733.445L582.557 719.889L584.014 719.59L610.292 714.151L617.951 738.461C619.677 735.586 620.357 732.204 619.876 728.887C619.395 725.569 617.782 722.519 615.311 720.252C614.788 719.779 614.352 719.319 614.364 718.883C614.8 692.634 613.194 644.704 598.685 624.977C594.077 618.717 591.312 612.481 587.289 608.125C587.277 608.113 587.277 608.1 587.264 608.1L577.475 592.082L576.878 591.099L576.205 590.763L558.296 669.771Z" fill="#3F3D56"/>
<path d="M511.822 551.237C531.745 551.237 547.896 535.096 547.896 515.186C547.896 495.275 531.745 479.135 511.822 479.135C491.899 479.135 475.748 495.275 475.748 515.186C475.748 535.096 491.899 551.237 511.822 551.237Z" fill="#FFB6B6"/>
<path d="M560.58 490.004C560.3 489.706 559.963 489.466 559.589 489.301C559.215 489.136 558.811 489.047 558.402 489.041L558.945 487.536C559.122 487.062 559.169 486.55 559.083 486.051C558.997 485.553 558.779 485.086 558.453 484.699C558.127 484.312 557.704 484.019 557.227 483.849C556.75 483.68 556.236 483.64 555.739 483.734L553.763 484.114L553.949 482.795C554.021 482.304 553.963 481.803 553.782 481.341C553.601 480.879 553.302 480.472 552.916 480.16C552.529 479.848 552.068 479.642 551.578 479.562C551.088 479.482 550.586 479.531 550.12 479.704C549.697 479.871 549.241 479.941 548.787 479.909C548.334 479.876 547.893 479.743 547.497 479.518C547.1 479.301 546.755 478.999 546.487 478.634C546.218 478.269 546.032 477.851 545.943 477.407L545.255 474.089L545.182 473.911C541.83 468.329 535.386 464.267 527.5 462.779C520.481 461.444 513.284 462.123 506.346 462.762C503.593 463.021 500.484 463.313 497.894 464.898C495.692 466.258 493.83 468.976 494.21 471.719C487.369 469.623 480.034 473.806 476.399 479.081C472.092 485.36 471.388 493.224 471.274 499.373C470.967 513.92 473.97 525.822 480.18 534.754C480.633 535.401 480.747 536.752 481.645 537.206L481.459 536.906C482.463 537.408 483.483 538.217 483.102 539.083C482.01 541.574 489.272 547.084 494.388 548.905C503.723 552.23 516.134 551.947 524.861 550.749L525.169 548.686C528.318 548.257 530.536 547.44 531.16 546.162C532.261 545.223 533.2 544.382 534.017 543.605L534.026 543.597C534.042 543.581 534.074 543.557 534.09 543.541C538.033 539.762 538.948 537.61 539.361 534.333C539.757 531.121 539.053 527.861 538.333 524.924C553.504 527.27 532.358 508.775 546.493 505.198C546.655 505.149 546.82 505.108 546.987 505.077C547.4 504.98 547.813 504.883 548.209 504.77C550.122 504.251 551.953 503.469 553.65 502.448C557.601 500.045 558.904 496.857 560.944 493.265C561.239 492.753 561.362 492.161 561.297 491.575C561.231 490.988 560.98 490.438 560.58 490.004Z" fill="#2F2E41"/>
<path d="M639.41 672.337C639.401 673.753 639.385 675.736 639.321 678.187C639.312 678.527 639.304 678.875 639.296 679.231C639.191 683.737 639.086 687.516 638.916 691.715C638.908 692.006 638.9 692.289 638.883 692.58C638.657 698.438 638.3 705.259 637.685 716.06C636.544 736.012 634.552 718.803 632.552 725.801C632.455 726.149 632.35 726.562 632.253 727.047C631.95 728.808 631.439 730.528 630.731 732.169C629.67 732.8 628.577 733.406 627.501 734.013C624.432 735.72 621.315 737.363 618.174 738.924C616.409 739.798 614.636 740.656 612.855 741.481C612.572 741.61 612.297 741.74 612.021 741.861C602.901 746.077 593.501 749.662 583.888 752.59C582.01 753.156 580.14 753.706 578.245 754.216C576.27 754.766 574.294 755.284 572.295 755.769C557.419 759.419 542.197 761.478 526.885 761.91C524.821 761.975 522.74 761.999 520.651 761.999C519.615 761.999 518.595 761.991 517.559 761.983C517.243 761.983 516.927 761.975 516.611 761.967C515.696 761.943 514.749 761.926 513.794 761.902C495.318 761.326 476.993 758.381 459.268 753.14L458.515 752.921C457.349 752.565 456.192 752.217 455.034 751.845C449.691 750.154 444.426 748.261 439.239 746.166C435.28 744.572 431.367 742.862 427.5 741.036C427.465 741.026 427.432 741.01 427.403 740.987C426.593 740.615 425.776 740.227 424.966 739.831C424.861 739.774 424.747 739.717 424.634 739.661C421.614 738.188 418.627 736.645 415.672 735.033C413.186 729.329 409.689 728.236 407.519 723.22C406.888 721.73 406.431 720.171 406.159 718.576C406.159 718.56 406.151 718.544 406.151 718.519C406.378 721.529 405.188 713.18 406.143 718.487C406.135 718.39 406.127 718.285 406.119 718.163C406.094 717.872 406.062 717.516 406.014 717.071C403.237 689.975 403.415 658.988 402.208 633.453C402.127 631.803 402.044 630.222 401.958 628.712C401.933 628.21 401.901 627.717 401.868 627.231C401.925 627.086 401.99 626.932 402.063 626.786C402.078 626.744 402.097 626.704 402.119 626.665C402.143 626.615 402.17 626.566 402.2 626.519C402.217 626.495 402.241 626.463 402.257 626.439C402.269 626.411 402.282 626.384 402.297 626.358C402.37 626.244 402.451 626.123 402.54 626.01C402.581 625.961 402.613 625.921 402.654 625.88C402.682 625.839 402.714 625.801 402.751 625.767C402.776 625.728 402.806 625.693 402.84 625.662C402.872 625.629 402.905 625.589 402.945 625.549C402.962 625.523 402.984 625.501 403.01 625.484C403.074 625.41 403.144 625.343 403.22 625.282C403.509 625.016 403.818 624.773 404.143 624.553C404.257 624.481 404.378 624.408 404.491 624.327C405.307 623.839 406.166 623.427 407.058 623.097C407.366 622.984 407.673 622.879 408.005 622.765C408.127 622.733 408.24 622.693 408.361 622.652C408.539 622.595 408.718 622.539 408.904 622.498C409.827 622.223 410.822 621.989 411.899 621.77C412.029 621.746 412.166 621.722 412.304 621.689C412.498 621.649 412.701 621.616 412.903 621.584C413.178 621.536 413.462 621.487 413.745 621.438C416.15 621.058 418.878 620.775 421.89 620.589C422.173 620.573 422.456 620.557 422.74 620.54C423.072 620.524 423.403 620.508 423.743 620.492C424.027 620.476 424.318 620.468 424.61 620.459C424.893 620.443 425.185 620.435 425.484 620.427C426.302 620.403 427.144 620.379 428.002 620.362C430.447 620.314 433.021 620.33 435.725 620.387C436.98 620.419 438.259 620.451 439.571 620.508C439.66 620.508 439.741 620.516 439.822 620.516C440.963 620.557 442.113 620.605 443.295 620.67C444.121 620.71 444.955 620.751 445.789 620.799C446.574 620.848 447.367 620.896 448.169 620.953C448.792 620.985 449.415 621.034 450.047 621.074C450.581 621.115 451.116 621.155 451.65 621.188L452.379 621.236C452.775 621.269 453.172 621.293 453.577 621.333C454.467 621.406 455.358 621.479 456.265 621.552C457.163 621.633 458.078 621.714 458.993 621.794C459.908 621.875 460.831 621.964 461.754 622.053C461.851 622.061 461.94 622.07 462.029 622.078C462.871 622.167 463.713 622.248 464.563 622.337C464.757 622.353 464.96 622.369 465.154 622.393C465.964 622.475 466.791 622.57 467.609 622.657C467.86 622.684 468.109 622.71 468.361 622.737C469.002 622.807 469.633 622.868 470.278 622.943C471.129 623.04 471.995 623.129 472.837 623.243C473.493 623.316 474.148 623.388 474.804 623.469C475.832 623.591 476.877 623.72 477.921 623.858C478.318 623.906 478.714 623.955 479.111 624.011C482.09 624.383 485.102 624.796 488.162 625.225C492.801 625.88 497.513 626.592 502.257 627.361C507.01 628.13 511.789 628.941 516.595 629.796C517.809 630.015 519.024 630.233 520.246 630.46C520.797 630.565 521.347 630.67 521.898 630.775C522.837 630.945 523.776 631.123 524.715 631.301C525.654 631.479 526.593 631.657 527.533 631.843C528.65 632.062 529.775 632.28 530.892 632.498C538.251 633.955 545.57 635.508 552.711 637.135C553.885 637.401 555.059 637.677 556.224 637.944C558.556 638.486 560.866 639.036 563.154 639.594C563.786 639.74 564.409 639.893 565.033 640.047C566.587 640.436 568.141 640.824 569.672 641.22L569.939 641.293C571.064 641.568 572.165 641.851 573.266 642.143C575.865 642.822 578.421 643.51 580.933 644.206C582.601 644.667 584.25 645.134 585.88 645.606C588.316 646.309 590.705 647.021 593.028 647.741C593.603 647.919 594.178 648.097 594.745 648.267C596.445 648.793 598.121 649.327 599.748 649.861C601.043 650.282 602.306 650.711 603.553 651.14C604.8 651.568 606.022 651.997 607.22 652.426C607.989 652.701 608.75 652.992 609.511 653.267C610.604 653.672 611.681 654.077 612.734 654.481C613.057 654.602 613.373 654.732 613.689 654.853C613.891 654.942 614.086 655.015 614.28 655.096C614.66 655.25 615.049 655.395 615.421 655.549C615.802 655.695 616.174 655.848 616.547 656.01C616.911 656.156 617.283 656.31 617.64 656.463C618.004 656.609 618.36 656.763 618.716 656.924C619.016 657.046 619.307 657.175 619.591 657.305C620.166 657.556 620.74 657.806 621.299 658.065C621.574 658.195 621.85 658.316 622.125 658.446L622.756 658.737C622.845 658.785 622.934 658.826 623.023 658.866C623.226 658.963 623.436 659.069 623.639 659.166C624.108 659.384 624.57 659.619 625.023 659.837C625.63 660.145 626.221 660.452 626.788 660.751C627.363 661.059 627.921 661.366 628.456 661.666C628.545 661.714 628.626 661.763 628.715 661.811C628.836 661.876 628.958 661.949 629.079 662.014C629.492 662.248 629.889 662.491 630.285 662.726C631.063 663.203 631.799 663.672 632.488 664.141C632.641 664.247 632.787 664.352 632.941 664.449C633.451 664.813 633.937 665.169 634.39 665.533C634.39 665.541 634.39 665.541 634.398 665.541C634.552 665.654 634.698 665.776 634.843 665.889C634.965 666.002 635.094 666.099 635.216 666.213C635.637 666.577 636.025 666.925 636.382 667.281C636.501 667.39 636.615 667.507 636.722 667.629C636.769 667.668 636.812 667.711 636.851 667.758C637.013 667.92 637.159 668.082 637.296 668.243C637.318 668.266 637.337 668.29 637.353 668.316C637.547 668.543 637.726 668.769 637.896 668.996C637.977 669.109 638.066 669.222 638.138 669.336C638.236 669.473 638.333 669.619 638.414 669.756C638.487 669.87 638.551 669.991 638.616 670.104C638.788 670.396 638.934 670.702 639.053 671.019C639.144 671.233 639.217 671.455 639.272 671.682C639.333 671.897 639.379 672.116 639.41 672.337Z" fill="#2F2E41"/>
<path opacity="0.2" d="M639.41 672.337C639.401 673.753 639.385 675.736 639.321 678.187C639.312 678.527 639.296 678.875 639.288 679.231C639.207 682.669 639.086 686.917 638.916 691.715C638.908 692.006 638.899 692.289 638.883 692.58C638.657 698.438 638.3 705.259 637.685 716.06C636.544 736.012 634.552 718.803 632.552 725.801C626.999 722.387 620.91 718.811 614.401 715.138C613.227 714.474 612.043 713.808 610.847 713.139C597.829 705.882 583.289 698.276 568.109 690.744C567.51 690.445 566.903 690.145 566.304 689.854C531.532 672.677 493.578 655.97 462.83 644.821C456.896 642.669 451.229 640.727 445.902 639.02C434.681 635.435 424.982 632.927 417.518 631.843C409.746 630.71 404.378 631.115 402.208 633.453C402.127 631.803 402.044 630.222 401.957 628.712C401.925 628.21 401.893 627.717 401.86 627.231C401.91 627.098 401.975 626.971 402.038 626.843C402.047 626.824 402.053 626.805 402.063 626.786C402.078 626.744 402.097 626.704 402.119 626.665C402.143 626.615 402.17 626.566 402.2 626.519C402.227 626.462 402.259 626.408 402.297 626.358C402.37 626.244 402.451 626.123 402.54 626.01C402.606 625.925 402.676 625.844 402.751 625.767C402.776 625.728 402.806 625.693 402.84 625.662C402.872 625.629 402.905 625.589 402.945 625.549C402.962 625.523 402.984 625.501 403.01 625.484C403.074 625.41 403.144 625.343 403.22 625.282C403.509 625.016 403.818 624.773 404.143 624.553C404.257 624.481 404.378 624.408 404.491 624.327C405.307 623.839 406.166 623.427 407.058 623.097C407.365 622.984 407.673 622.879 408.005 622.765C408.126 622.733 408.24 622.693 408.361 622.652C408.539 622.595 408.717 622.539 408.904 622.498C409.827 622.223 410.822 621.989 411.899 621.77C412.223 621.705 412.563 621.641 412.903 621.584C413.178 621.536 413.462 621.487 413.745 621.438C416.149 621.058 418.878 620.775 421.889 620.589C422.173 620.573 422.456 620.557 422.74 620.54C423.071 620.524 423.403 620.508 423.743 620.492C424.027 620.476 424.318 620.468 424.61 620.459C424.893 620.443 425.184 620.435 425.484 620.427C426.302 620.403 427.144 620.379 428.002 620.362C430.447 620.322 433.021 620.338 435.725 620.395C436.98 620.419 438.259 620.459 439.571 620.516C439.652 620.516 439.741 620.524 439.822 620.524C440.963 620.557 442.121 620.613 443.295 620.67C444.121 620.71 444.955 620.751 445.788 620.799C446.574 620.848 447.367 620.896 448.169 620.953C448.792 620.985 449.415 621.034 450.047 621.074C450.581 621.115 451.116 621.155 451.65 621.188C452.289 621.236 452.929 621.285 453.577 621.333C454.467 621.406 455.358 621.479 456.265 621.552C457.163 621.633 458.078 621.713 458.993 621.794C459.908 621.875 460.831 621.964 461.754 622.053C461.851 622.061 461.94 622.069 462.029 622.078C462.871 622.167 463.713 622.248 464.563 622.336C469.275 622.814 474.124 623.372 479.111 624.011C482.09 624.392 485.107 624.799 488.162 625.233C492.801 625.888 497.513 626.6 502.257 627.361C507.01 628.129 511.789 628.941 516.595 629.796C517.809 630.015 519.024 630.233 520.246 630.46C521.736 630.735 523.226 631.015 524.715 631.301C525.654 631.479 526.593 631.657 527.533 631.843C528.65 632.062 529.775 632.28 530.892 632.498C538.252 633.955 545.57 635.508 552.711 637.134C553.885 637.401 555.059 637.677 556.224 637.944C558.556 638.486 560.866 639.036 563.154 639.594C563.786 639.748 564.409 639.902 565.033 640.055C566.595 640.444 568.141 640.832 569.672 641.22V641.228C569.761 641.245 569.85 641.269 569.939 641.293C571.056 641.576 572.165 641.859 573.266 642.151C575.865 642.83 578.421 643.515 580.933 644.206C582.601 644.675 584.252 645.136 585.88 645.606C588.316 646.318 590.705 647.029 593.028 647.741C593.603 647.919 594.178 648.097 594.745 648.267C596.445 648.801 598.112 649.333 599.748 649.861C601.043 650.282 602.306 650.711 603.553 651.14C604.8 651.568 606.022 651.997 607.22 652.426C607.997 652.701 608.759 652.984 609.511 653.259C610.612 653.664 611.681 654.068 612.734 654.481C613.057 654.602 613.373 654.732 613.689 654.853C614.28 655.08 614.855 655.314 615.421 655.549C615.802 655.695 616.174 655.848 616.547 656.01C616.911 656.156 617.283 656.31 617.64 656.463C618.004 656.609 618.36 656.763 618.716 656.924C619.016 657.046 619.307 657.175 619.591 657.305C620.166 657.556 620.74 657.806 621.299 658.065C621.574 658.195 621.85 658.316 622.125 658.446L622.756 658.737C622.845 658.785 622.934 658.826 623.023 658.866C623.712 659.19 624.375 659.514 625.023 659.837C625.63 660.145 626.221 660.452 626.788 660.751C627.46 661.107 628.1 661.455 628.715 661.811C628.836 661.876 628.958 661.949 629.079 662.014C629.492 662.248 629.889 662.491 630.285 662.726C631.063 663.203 631.799 663.672 632.488 664.141C633.168 664.611 633.799 665.072 634.39 665.533C634.39 665.541 634.39 665.541 634.398 665.541C634.682 665.768 634.957 665.994 635.216 666.213C635.637 666.577 636.025 666.925 636.382 667.281C636.501 667.39 636.615 667.507 636.722 667.629C636.769 667.668 636.812 667.711 636.851 667.758C637.021 667.944 637.191 668.13 637.353 668.316C637.548 668.543 637.726 668.769 637.896 668.996C637.977 669.109 638.066 669.222 638.138 669.336C638.236 669.473 638.333 669.619 638.414 669.756C638.487 669.87 638.551 669.991 638.616 670.104C638.788 670.396 638.934 670.702 639.053 671.019C639.142 671.234 639.215 671.456 639.272 671.682C639.333 671.897 639.379 672.116 639.41 672.337Z" fill="black"/>
</g>
<defs>
<filter id="filter0_f_92_70" x="0.919922" y="0.156189" width="989.32" height="1108.97" filterUnits="userSpaceOnUse" color-interpolation-filters="sRGB">
<feFlood flood-opacity="0" result="BackgroundImageFix"/>
<feBlend mode="normal" in="SourceGraphic" in2="BackgroundImageFix" result="shape"/>
<feGaussianBlur stdDeviation="75" result="effect1_foregroundBlur_92_70"/>
</filter>
<clipPath id="clip0_92_70">
<rect width="637" height="463" fill="white" transform="translate(199 299)"/>
</clipPath>
</defs>
</svg>
