<svg width="270" height="40" viewBox="0 0 270 40" fill="none" xmlns="http://www.w3.org/2000/svg">
<g clip-path="url(#clip0_111_173)">
<path d="M25.5328 11.8723H20.79L20.2194 16.7334H24.9266L24.3204 22.1001H19.6132L18.9713 27.7778H13.8005L14.4424 22.1001H10.1632L9.5213 27.7778H4.38621L5.02809 22.1001H0.320923L0.927149 16.7334H5.63432L6.20489 11.8723H1.53338L2.06828 6.50561H6.81111L7.48866 0.516724H12.6238L11.9462 6.50561H16.2255L16.903 0.516724H22.0738L21.3962 6.50561H26.1034L25.5328 11.8723ZM15.0487 16.7334L15.6192 11.8723H11.34L10.7694 16.7334H15.0487Z" fill="#419EF4"/>
</g>
<g clip-path="url(#clip1_111_173)">
<path d="M30.566 -0.144936H37.9834V10.7051H46.8628V-0.144936H54.2802V27.1162H46.8628V16.9662H37.9834V27.1162H30.566V-0.144936ZM67.6957 5.64951C73.1518 5.64951 76.3969 8.4884 76.3969 13.3884V27.1162H69.3361V24.7828C68.1593 26.494 66.2337 27.4662 63.6661 27.4662C59.5295 27.4662 57.1046 24.7828 57.1046 20.8162C57.1046 16.7328 59.7078 14.4773 64.5933 14.3995H69.3361V14.3217C69.3361 12.5717 68.195 11.5217 65.984 11.5217C64.4506 11.5217 62.2753 12.0273 60.1357 13.0384L58.3527 7.82729C61.5265 6.42729 64.6646 5.64951 67.6957 5.64951ZM66.0553 22.3328C67.5174 22.3328 68.8012 21.4773 69.3361 20.1551V18.2495H66.0553C64.6289 18.2495 63.8801 18.9106 63.8801 20.2328C63.8801 21.5551 64.6646 22.3328 66.0553 22.3328ZM93.8855 13.1162C91.2467 11.6384 89.0714 10.8995 87.538 10.8995C86.6465 10.8995 86.0759 11.2495 86.0759 11.9106C86.0759 14.2828 96.2034 13.2328 96.2034 20.4662C96.2034 24.8217 92.7444 27.4662 87.6806 27.4662C84.2572 27.4662 81.0834 26.4551 78.5516 24.4717L80.7625 19.5328C83.1874 21.244 85.648 22.1384 87.7876 22.1384C88.7504 22.1384 89.3923 21.8273 89.3923 21.1662C89.3923 18.7551 79.4787 19.9217 79.4787 12.6884C79.4787 8.25506 82.8665 5.61062 87.7519 5.61062C90.6761 5.61062 93.6359 6.50506 96.2748 8.17729L93.8855 13.1162ZM112.862 5.64951C117.035 5.64951 119.852 8.79951 119.852 13.6995V27.1162H112.648V15.9551C112.648 13.8551 111.579 12.5328 109.867 12.5328C107.906 12.5717 106.693 14.244 106.693 16.6551V27.1162H99.4897V-1.73938H106.693V9.22729C108.048 6.89395 110.152 5.64951 112.862 5.64951Z" fill="#419EF4"/>
<path d="M121.414 -0.144483H143.381V6.31107H136.107V27.1166H128.653V6.31107H121.414V-0.144483ZM152.693 9.30552C154.048 6.97218 156.152 5.64996 158.791 5.64996V12.7277C155.082 12.2222 152.693 13.9333 152.693 17.0055V27.1166H145.489V5.96107H152.693V9.30552ZM170.045 5.64996C175.501 5.64996 178.746 8.48885 178.746 13.3889V27.1166H171.685V24.7833C170.509 26.4944 168.583 27.4666 166.015 27.4666C161.879 27.4666 159.454 24.7833 159.454 20.8166C159.454 16.7333 162.057 14.4777 166.943 14.4H171.685V14.3222C171.685 12.5722 170.544 11.5222 168.333 11.5222C166.8 11.5222 164.625 12.0277 162.485 13.0389L160.702 7.82774C163.876 6.42774 167.014 5.64996 170.045 5.64996ZM168.405 22.3333C169.867 22.3333 171.15 21.4777 171.685 20.1555V18.25H168.405C166.978 18.25 166.229 18.9111 166.229 20.2333C166.229 21.5555 167.014 22.3333 168.405 22.3333ZM186.214 -3.33337C188.033 -3.33337 189.281 -1.93337 189.281 0.0499617C189.281 1.95552 188.033 3.35552 186.214 3.35552C184.396 3.35552 183.148 1.95552 183.148 0.0499617C183.148 -1.93337 184.396 -3.33337 186.214 -3.33337ZM182.577 5.96107H189.78V27.1166H182.577V5.96107ZM207.512 5.64996C211.648 5.64996 214.501 8.79996 214.501 13.7V27.1166H207.298V15.9555C207.298 13.8555 206.192 12.5333 204.516 12.5333C202.555 12.5722 201.343 14.2444 201.343 16.6555V27.1166H194.139V5.96107H201.343V9.22774C202.698 6.89441 204.802 5.64996 207.512 5.64996ZM221.944 -3.33337C223.763 -3.33337 225.011 -1.93337 225.011 0.0499617C225.011 1.95552 223.763 3.35552 221.944 3.35552C220.125 3.35552 218.877 1.95552 218.877 0.0499617C218.877 -1.93337 220.125 -3.33337 221.944 -3.33337ZM218.307 5.96107H225.51V27.1166H218.307V5.96107ZM243.242 5.64996C247.378 5.64996 250.231 8.79996 250.231 13.7V27.1166H243.028V15.9555C243.028 13.8555 241.922 12.5333 240.246 12.5333C238.285 12.5722 237.072 14.2444 237.072 16.6555V27.1166H229.869V5.96107H237.072V9.22774C238.427 6.89441 240.531 5.64996 243.242 5.64996ZM265.877 5.96107H273.009V25.2889C273.009 31.2389 268.694 35.0111 262.346 35.0111C258.745 35.0111 255.5 33.7666 253.396 32.25L255.785 26.9611C257.497 28.2055 259.743 28.9055 261.74 28.9055C264.343 28.9055 265.877 27.5833 265.877 25.5222V23.3833C264.629 25.0166 262.881 25.9111 260.67 25.9111C255.963 25.9111 252.54 21.8666 252.54 15.6833C252.54 9.65552 255.856 5.68885 260.528 5.68885C262.81 5.68885 264.629 6.62218 265.877 8.25552V5.96107ZM262.56 20.2722C264.557 20.2722 265.877 18.5222 265.877 15.9166C265.877 13.2333 264.557 11.4833 262.56 11.4833C260.599 11.4833 259.28 13.2722 259.28 15.9166C259.28 18.5222 260.599 20.2722 262.56 20.2722Z" fill="white"/>
</g>
<defs>
<clipPath id="clip0_111_173">
<rect width="26.4906" height="27.7778" fill="white"/>
</clipPath>
<clipPath id="clip1_111_173">
<rect width="243.509" height="40" fill="white" transform="translate(26.4906)"/>
</clipPath>
</defs>
</svg>
