<svg width="64" height="60" viewBox="0 0 64 60" fill="none" xmlns="http://www.w3.org/2000/svg">
<path d="M31.8448 0C49.4391 0 63.6896 13.7646 63.6896 30.7588C63.6879 37.2036 61.5938 43.4855 57.7022 48.7205C53.8105 53.9555 48.3171 57.8799 41.9953 59.9412C40.4031 60.2488 39.806 59.2876 39.806 58.4802C39.806 57.4421 39.8458 54.1355 39.8458 50.0215C39.8458 47.1379 38.8507 45.2924 37.6963 44.3311C44.7818 43.5622 52.2255 40.9477 52.2255 29.144C52.2255 25.7605 50.9915 23.0307 48.9614 20.8775C49.2798 20.1086 50.3944 16.9558 48.643 12.7265C48.643 12.7265 45.9759 11.8806 39.8856 15.8792C37.338 15.1872 34.6312 14.8411 31.9244 14.8411C29.2176 14.8411 26.5108 15.1872 23.9632 15.8792C17.8729 11.919 15.2059 12.7265 15.2059 12.7265C13.4544 16.9558 14.569 20.1086 14.8875 20.8775C12.8573 23.0307 11.6234 25.799 11.6234 29.144C11.6234 40.9092 19.0273 43.5622 26.1127 44.3311C25.1972 45.1001 24.3613 46.4458 24.0826 48.4451C22.2516 49.2526 17.6739 50.5598 14.8078 45.9075C14.2108 44.9848 12.4195 42.7163 9.9117 42.7548C7.2447 42.7932 8.83694 44.2158 9.95151 44.7925C11.3049 45.523 12.8573 48.2529 13.2156 49.1372C13.8525 50.8674 15.9224 54.174 23.9234 52.7514C23.9234 55.3274 23.9632 57.7497 23.9632 58.4802C23.9632 59.2876 23.3661 60.2104 21.7739 59.9412C15.4314 57.9021 9.91462 53.9856 6.00629 48.7475C2.09796 43.5094 -0.00350484 37.2155 4.38787e-06 30.7588C4.38787e-06 13.7646 14.2506 0 31.8448 0Z" fill="#CD773A"/>
</svg>
